<svg width="48" height="48" viewBox="0 0 48 48" fill="none" xmlns="http://www.w3.org/2000/svg">
<path d="M43.5654 22.0137V13.0652C43.5663 11.9153 43.1122 10.8117 42.302 9.99524C41.907 9.5742 41.4269 9.24192 40.8936 9.02045C40.3604 8.79898 39.7861 8.69338 39.2089 8.71065H30.4958V4.35612C30.5117 3.78131 30.4076 3.2095 30.1901 2.67717C29.9726 2.14483 29.6464 1.66368 29.2324 1.2644C28.8329 0.850596 28.3516 0.524571 27.819 0.307139C27.2864 0.089707 26.7143 -0.014356 26.1392 0.00159129H17.4262C16.8511 -0.014356 16.279 0.089707 15.7464 0.307139C15.2139 0.524571 14.7325 0.850596 14.333 1.2644C13.919 1.66368 13.5928 2.14483 13.3753 2.67717C13.1578 3.2095 13.0537 3.78131 13.0696 4.35612V8.71065H4.35654C3.77933 8.69338 3.20503 8.79898 2.67176 9.02045C2.13848 9.24192 1.65842 9.5742 1.2634 9.99524C0.453254 10.8117 -0.000916668 11.9153 1.38911e-06 13.0652V37.0151C-0.000916668 38.165 0.453254 39.2686 1.2634 40.085C1.65842 40.5061 2.13848 40.8383 2.67176 41.0598C3.20503 41.2813 3.77933 41.3869 4.35654 41.3696H20.1708C21.3681 43.1175 22.9167 44.5966 24.718 45.7127C26.5192 46.8289 28.5334 47.5574 30.6321 47.852C32.7307 48.1465 34.8678 48.0005 36.9069 47.4233C38.9459 46.8461 40.8422 45.8504 42.4748 44.4997C44.1073 43.149 45.4402 41.473 46.3885 39.5785C47.3367 37.6841 47.8795 35.613 47.9821 33.4972C48.0847 31.3814 47.745 29.2674 46.9845 27.2902C46.224 25.313 45.0596 23.5159 43.5654 22.0137ZM17.4262 4.35612H26.1392V8.71065H17.4262M4.35654 37.0151V13.0652H39.2089V18.9002C37.1713 17.9172 34.9365 17.4109 32.6741 17.4197C28.6301 17.4197 24.7517 19.0254 21.8922 21.8836C19.0326 24.7419 17.4262 28.6184 17.4262 32.6606C17.4221 34.1352 17.6349 35.6024 18.0579 37.0151M39.2089 41.3696C37.3236 42.7829 35.0306 43.5469 32.6741 43.5469C30.3175 43.5469 28.0245 42.7829 26.1392 41.3696C24.779 40.3627 23.6755 39.0493 22.9185 37.5361C22.1616 36.0228 21.7724 34.3524 21.7827 32.6606C21.7827 29.7733 22.9302 27.0043 24.9727 24.9628C27.0152 22.9212 29.7855 21.7742 32.6741 21.7742C35.0322 21.7647 37.3281 22.5297 39.2089 23.9515C40.5615 24.9655 41.6594 26.2804 42.4156 27.792C43.1717 29.3037 43.5654 30.9705 43.5654 32.6606C43.5654 34.3506 43.1717 36.0174 42.4156 37.5291C41.6594 39.0407 40.5615 40.3556 39.2089 41.3696ZM30.4958 26.1288H33.7632V32.2687L39.0782 35.3386L37.4445 38.169L30.4958 34.1629V26.1288Z" fill="#DBB13B"/>
</svg>
