<svg width="62" height="62" viewBox="0 0 62 62" fill="none" xmlns="http://www.w3.org/2000/svg">
<path d="M31 15.7209C31 14.707 30.8012 13.7031 30.4149 12.7665C30.0285 11.8298 29.4623 10.9787 28.7485 10.2618C28.0347 9.54495 27.1873 8.97628 26.2546 8.58831C25.322 8.20033 24.3224 8.00064 23.3129 8.00064H15.786C14.7683 7.98749 13.7581 8.17745 12.8141 8.55949C11.87 8.94154 11.0109 9.50807 10.2866 10.2262C9.56227 10.9443 8.98717 11.7998 8.59465 12.7429C8.20212 13.686 8 14.698 8 15.7202C8 16.7424 8.20212 17.7544 8.59465 18.6976C8.98717 19.6407 9.56227 20.4961 10.2866 21.2143C11.0109 21.9324 11.87 22.4989 12.8141 22.881C13.7581 23.263 14.7683 23.453 15.786 23.4398H17.2593V27.167C17.2593 27.167 31 25.3041 31 15.7209ZM24.0024 36.1114C24.0024 38.9352 21.7251 41.2224 18.9133 41.2224C16.1016 41.2224 13.8242 38.9352 13.8242 36.1114C13.8242 33.2875 16.1016 31.0003 18.9133 31.0003C21.7251 31.0003 24.0024 33.2875 24.0024 36.1114ZM18.9133 43.7779C15.3038 43.7779 8.09889 45.6051 8.09889 49.2301V54H29.7277V49.2301C29.7277 45.6038 22.5228 43.7779 18.9133 43.7779ZM43.0867 41.2224C45.8984 41.2224 48.1758 38.9352 48.1758 36.1114C48.1758 33.2875 45.8984 31.0003 43.0867 31.0003C40.2749 31.0003 37.9976 33.2875 37.9976 36.1114C37.9976 38.9352 40.2749 41.2224 43.0867 41.2224ZM43.0867 43.7779C39.4772 43.7779 32.2723 45.6051 32.2723 49.2301V54H53.9011V49.2301C53.9011 45.6038 46.6962 43.7779 43.0867 43.7779ZM41.2317 9.2784C39.193 9.2784 37.2377 10.0918 35.7961 11.5396C34.3545 12.9874 33.5446 14.9511 33.5446 16.9986C33.5446 26.5818 45.7585 28.4448 45.7585 28.4448V24.7176H46.214C47.2317 24.7307 48.2419 24.5408 49.1859 24.1587C50.13 23.7767 50.9891 23.2101 51.7134 22.492C52.4377 21.7739 53.0128 20.9184 53.4054 19.9753C53.7979 19.0322 54 18.0202 54 16.998C54 15.9758 53.7979 14.9638 53.4054 14.0207C53.0128 13.0775 52.4377 12.2221 51.7134 11.504C50.9891 10.7858 50.13 10.2193 49.1859 9.83725C48.2419 9.45521 47.2317 9.26525 46.214 9.2784H41.2317Z" fill="#DBB13B"/>
</svg>
