<svg width="212" height="243" viewBox="0 0 212 243" fill="none" xmlns="http://www.w3.org/2000/svg">
<g clip-path="url(#clip0_263_397)">
<rect x="17.5" y="31.5" width="177" height="177" rx="88.5" fill="#1D2732"/>
<path d="M111.912 144.75C111.546 144.75 111.191 144.681 110.848 144.544C110.504 144.406 110.194 144.2 109.919 143.925L93.35 126.669C93.0292 126.348 92.7661 125.913 92.5607 125.362C92.3536 124.812 92.25 124.308 92.25 123.85C92.25 122.796 92.6277 121.89 93.383 121.133C94.1402 120.378 95.0458 120 96.1 120H101.875C104.304 120 106.402 119.209 108.167 117.627C109.931 116.046 110.996 114.087 111.362 111.75H92.25C91.4708 111.75 90.8173 111.486 90.2893 110.958C89.7631 110.432 89.5 109.779 89.5 109C89.5 108.221 89.7631 107.567 90.2893 107.039C90.8173 106.513 91.4708 106.25 92.25 106.25H110.537C109.758 104.646 108.601 103.328 107.067 102.295C105.531 101.265 103.8 100.75 101.875 100.75H92.25C91.4708 100.75 90.8173 100.486 90.2893 99.958C89.7631 99.4318 89.5 98.7792 89.5 98C89.5 97.2208 89.7631 96.5672 90.2893 96.0392C90.8173 95.5131 91.4708 95.25 92.25 95.25H119.75C120.529 95.25 121.182 95.5131 121.708 96.0392C122.236 96.5672 122.5 97.2208 122.5 98C122.5 98.7792 122.236 99.4318 121.708 99.958C121.182 100.486 120.529 100.75 119.75 100.75H113.562C114.204 101.529 114.777 102.377 115.281 103.294C115.785 104.21 116.175 105.196 116.45 106.25H119.75C120.529 106.25 121.182 106.513 121.708 107.039C122.236 107.567 122.5 108.221 122.5 109C122.5 109.779 122.236 110.432 121.708 110.958C121.182 111.486 120.529 111.75 119.75 111.75H116.931C116.565 115.646 114.96 118.911 112.119 121.546C109.277 124.182 105.862 125.5 101.875 125.5H99.8812L113.906 140.075C114.731 140.946 114.903 141.942 114.421 143.064C113.94 144.188 113.104 144.75 111.912 144.75Z" fill="#DBB13B"/>
<rect x="17.5" y="31.5" width="177" height="177" rx="88.5" stroke="#DBB13B" stroke-width="3"/>
</g>
<defs>
<clipPath id="clip0_263_397">
<rect width="212" height="243" fill="white"/>
</clipPath>
</defs>
</svg>
