<svg width="212" height="243" viewBox="0 0 212 243" fill="none" xmlns="http://www.w3.org/2000/svg">
<g clip-path="url(#clip0_263_389)">
<rect x="17.5" y="35.5" width="177" height="177" rx="88.5" fill="#1D2732"/>
<path d="M96.375 143.25H86.75M96.6472 136.317C96.1812 135.816 95.5975 135.438 94.949 135.218C94.3004 134.998 93.6074 134.944 92.9324 135.059C92.2573 135.174 91.6216 135.455 91.0824 135.877C90.5432 136.299 90.1176 136.849 89.844 137.477C89.5703 138.104 89.4573 138.79 89.515 139.473C89.5727 140.155 89.7993 140.812 90.1745 141.385C90.5496 141.958 91.0615 142.428 91.6639 142.754C92.2663 143.079 92.9402 143.25 93.625 143.25M92.25 102V126.75M114.25 126.75H119.442C120.168 126.75 120.881 126.559 121.509 126.195C122.137 125.832 122.658 125.309 123.02 124.68C123.382 124.05 123.571 123.337 123.568 122.611C123.566 121.885 123.372 121.173 123.006 120.546L117 110.25M103.25 126.777V126.75" stroke="#DBB13B" stroke-width="5" stroke-linecap="round" stroke-linejoin="round"/>
<rect x="17.5" y="35.5" width="177" height="177" rx="88.5" stroke="#DBB13B" stroke-width="3"/>
</g>
<defs>
<clipPath id="clip0_263_389">
<rect width="212" height="243" fill="white"/>
</clipPath>
</defs>
</svg>
