<svg width="212" height="243" viewBox="0 0 212 243" fill="none" xmlns="http://www.w3.org/2000/svg">
<g clip-path="url(#clip0_263_388)">
<rect x="17.5" y="36.5" width="177" height="177" rx="88.5" fill="#1D2732"/>
<path d="M112.188 121.906H109.094V107.469H110.125C112.037 107.476 113.87 108.238 115.222 109.591C116.574 110.943 117.337 112.775 117.344 114.688C117.344 115.508 117.67 116.295 118.25 116.875C118.83 117.455 119.617 117.781 120.438 117.781C121.258 117.781 122.045 117.455 122.625 116.875C123.205 116.295 123.531 115.508 123.531 114.688C123.531 111.132 122.119 107.722 119.605 105.208C117.09 102.694 113.681 101.281 110.125 101.281H109.094V98.1875C109.094 97.367 108.768 96.5801 108.188 95.9999C107.607 95.4197 106.821 95.0938 106 95.0938C105.179 95.0938 104.393 95.4197 103.812 95.9999C103.232 96.5801 102.906 97.367 102.906 98.1875V101.281H100.844C97.2882 101.281 93.8783 102.694 91.3641 105.208C88.8499 107.722 87.4375 111.132 87.4375 114.688C87.4375 118.243 88.8499 121.653 91.3641 124.167C93.8783 126.681 97.2882 128.094 100.844 128.094H102.906V142.531H99.8125C97.9001 142.524 96.0679 141.762 94.7156 140.409C93.3633 139.057 92.6005 137.225 92.5938 135.312C92.5938 134.492 92.2678 133.705 91.6876 133.125C91.1074 132.545 90.3205 132.219 89.5 132.219C88.6795 132.219 87.8926 132.545 87.3124 133.125C86.7322 133.705 86.4062 134.492 86.4062 135.312C86.4062 138.868 87.8187 142.278 90.3328 144.792C92.847 147.306 96.2569 148.719 99.8125 148.719H102.906V151.812C102.906 152.633 103.232 153.42 103.812 154C104.393 154.58 105.179 154.906 106 154.906C106.821 154.906 107.607 154.58 108.188 154C108.768 153.42 109.094 152.633 109.094 151.812V148.719H112.188C115.743 148.719 119.153 147.306 121.667 144.792C124.181 142.278 125.594 138.868 125.594 135.312C125.594 131.757 124.181 128.347 121.667 125.833C119.153 123.319 115.743 121.906 112.188 121.906V121.906ZM100.844 121.906C98.9292 121.906 97.0931 121.146 95.7393 119.792C94.3855 118.438 93.625 116.602 93.625 114.688C93.625 112.773 94.3855 110.937 95.7393 109.583C97.0931 108.229 98.9292 107.469 100.844 107.469H102.906V121.906H100.844ZM112.188 142.531H109.094V128.094H112.188C114.102 128.094 115.938 128.854 117.292 130.208C118.646 131.562 119.406 133.398 119.406 135.312C119.406 137.227 118.646 139.063 117.292 140.417C115.938 141.771 114.102 142.531 112.188 142.531V142.531Z" fill="#DBB13B"/>
<rect x="17.5" y="36.5" width="177" height="177" rx="88.5" stroke="#DBB13B" stroke-width="3"/>
</g>
<defs>
<clipPath id="clip0_263_388">
<rect width="212" height="243" fill="white"/>
</clipPath>
</defs>
</svg>
