<svg width="98" height="90" viewBox="0 0 98 90" fill="none" xmlns="http://www.w3.org/2000/svg">
<g filter="url(#filter0_b_242_211)">
<path d="M50.2041 29.6653V27.949C50.2041 26.5959 49.1077 25.4995 47.7546 25.4995C46.4015 25.4995 45.3051 26.5959 45.3051 27.949V29.7238C40.946 30.8675 37.7179 34.8804 37.7179 39.6419C37.7179 44.4021 40.9463 48.4137 45.3051 49.5568V59.8539C43.1809 58.7781 41.1658 56.7825 40.4394 55.9245C39.5687 54.8892 38.0239 54.7553 36.9882 55.6264C35.9529 56.4968 35.8193 58.0419 36.6901 59.0775C37.1555 59.6308 40.7941 63.8201 45.3054 65.0997V66.9176C45.3054 68.2707 46.4018 69.3671 47.7549 69.3671C49.108 69.3671 50.2044 68.2707 50.2044 66.9176V65.1879C54.6589 64.1108 57.9814 60.0547 57.9814 55.2269C57.9814 50.3998 54.6589 46.3444 50.2044 45.2673V34.7717C52.4175 35.6003 54.4225 37.2969 55.1772 38.0769C56.1126 39.0527 57.661 39.0857 58.6379 38.152C59.6154 37.2169 59.6503 35.6666 58.7153 34.6884C58.2711 34.2246 54.7523 30.6738 50.2041 29.6653ZM42.6165 39.6419C42.6165 37.6369 43.7031 35.8886 45.3048 34.9735V44.3074C43.7031 43.3929 42.6165 41.6453 42.6165 39.6419ZM53.0818 55.2273C53.0818 57.308 51.9083 59.1105 50.2038 59.993V50.4628C51.9086 51.3446 53.0818 53.1465 53.0818 55.2273Z" fill="#DBB13B"/>
<path d="M87.0777 63.4926C84.4296 63.4926 82.0075 64.4734 80.1498 66.0874L73.1547 61.4242C75.4501 57.2732 76.7591 52.5038 76.7591 47.4337C76.7591 41.3576 74.8798 35.7133 71.6742 31.0479L76.3936 27.2717C78.0446 28.3381 80.0081 28.9599 82.1156 28.9599C87.9477 28.9599 92.6926 24.2151 92.6926 18.3827C92.6926 12.5502 87.948 7.80508 82.1156 7.80508C76.2832 7.80508 71.538 12.5499 71.538 18.3827C71.538 20.3289 72.0688 22.1529 72.9895 23.7213L68.5706 27.257C63.2957 21.8155 55.9139 18.4277 47.7547 18.4277C40.6342 18.4277 34.1065 21.0082 29.053 25.2814L19.6655 15.9795C20.6097 14.3972 21.1542 12.5499 21.1542 10.5773C21.1542 4.74484 16.4097 0 10.5776 0C4.74484 0 0 4.74484 0 10.5773C0 16.4093 4.74484 21.1545 10.5776 21.1545C12.6652 21.1545 14.6124 20.5438 16.2536 19.4954L25.5904 28.7473C21.325 33.7988 18.7501 40.321 18.7501 47.434C18.7501 53.609 20.6907 59.3383 23.993 64.0472L15.1333 71.4303C14.0719 70.8845 12.8703 70.5743 11.5972 70.5743C7.31746 70.5743 3.83591 74.0558 3.83591 78.3352C3.83591 82.6147 7.31746 86.0962 11.5972 86.0962C15.8763 86.0962 19.3576 82.6147 19.3576 78.3352C19.3576 77.1183 19.0754 75.9664 18.5744 74.9402L27.1323 67.8083C32.3938 73.1338 39.6956 76.4393 47.7551 76.4393C51.5453 76.4393 55.1669 75.7078 58.4888 74.3795L60.6718 78.7448C59.4823 79.9255 58.7442 81.5601 58.7442 83.3642C58.7442 86.9558 61.6659 89.8779 65.2572 89.8779C68.8488 89.8779 71.7706 86.9558 71.7706 83.3642C71.7706 79.7729 68.8488 76.8512 65.2572 76.8512C65.2389 76.8512 65.2216 76.8538 65.2037 76.8538L62.8675 72.1818C65.7621 70.4074 68.3223 68.1395 70.4319 65.496L77.2898 70.0677C76.7829 71.3032 76.5014 72.654 76.5014 74.0699C76.5014 79.9019 81.2459 84.6468 87.0783 84.6468C92.9107 84.6468 97.6552 79.9023 97.6552 74.0699C97.6546 68.2374 92.9101 63.4926 87.0777 63.4926ZM82.1156 12.7044C85.2464 12.7044 87.7936 15.2519 87.7936 18.383C87.7936 21.5141 85.2464 24.0612 82.1156 24.0612C78.9845 24.0612 76.437 21.5141 76.437 18.383C76.437 15.2519 78.9845 12.7044 82.1156 12.7044ZM11.5969 81.1969C10.0188 81.1969 8.73458 79.9131 8.73458 78.3349C8.73458 76.7568 10.0188 75.4729 11.5969 75.4729C13.1747 75.4729 14.4582 76.7568 14.4582 78.3349C14.4582 79.9131 13.1747 81.1969 11.5969 81.1969ZM66.8713 83.3646C66.8713 84.2552 66.1469 84.9793 65.2569 84.9793C64.3669 84.9793 63.6428 84.2549 63.6428 83.3646C63.6428 82.4742 64.3669 81.7505 65.2569 81.7505C66.1469 81.7505 66.8713 82.4742 66.8713 83.3646ZM10.5776 16.2552C7.44647 16.2552 4.89899 13.708 4.89899 10.5773C4.89899 7.44615 7.44647 4.89899 10.5776 4.89899C13.708 4.89899 16.2552 7.44615 16.2552 10.5773C16.2552 13.708 13.708 16.2552 10.5776 16.2552ZM47.7547 71.5403C34.4628 71.5403 23.6487 60.7263 23.6487 47.4337C23.6487 34.1411 34.4625 23.3267 47.7547 23.3267C61.0464 23.3267 71.8604 34.1408 71.8604 47.4337C71.8601 60.726 61.0464 71.5403 47.7547 71.5403ZM87.0777 79.7481C83.9469 79.7481 81.3997 77.201 81.3997 74.0702C81.3997 70.9391 83.9469 68.3916 87.0777 68.3916C90.2084 68.3916 92.7556 70.9391 92.7556 74.0702C92.7556 77.201 90.2084 79.7481 87.0777 79.7481Z" fill="#DBB13B"/>
</g>
<defs>
<filter id="filter0_b_242_211" x="-9" y="-9" width="115.655" height="107.878" filterUnits="userSpaceOnUse" color-interpolation-filters="sRGB">
<feFlood flood-opacity="0" result="BackgroundImageFix"/>
<feGaussianBlur in="BackgroundImageFix" stdDeviation="4.5"/>
<feComposite in2="SourceAlpha" operator="in" result="effect1_backgroundBlur_242_211"/>
<feBlend mode="normal" in="SourceGraphic" in2="effect1_backgroundBlur_242_211" result="shape"/>
</filter>
</defs>
</svg>
