<svg width="212" height="243" viewBox="0 0 212 243" fill="none" xmlns="http://www.w3.org/2000/svg">
<g clip-path="url(#clip0_263_387)">
<rect x="17.5" y="36.5" width="177" height="177" rx="88.5" fill="#1D2732"/>
<path d="M92.8687 149.75C91.9521 149.75 91.1619 149.417 90.4982 148.752C89.8327 148.088 89.5 147.298 89.5 146.381C89.5 145.923 89.6485 145.407 89.9455 144.833C90.2443 144.261 90.6687 143.7 91.2187 143.15C92.2729 142.371 93.4417 141.156 94.725 139.506C96.0083 137.856 96.65 135.771 96.65 133.25C96.65 132.746 96.6152 132.265 96.5455 131.806C96.4777 131.348 96.3979 130.912 96.3063 130.5H92.25C91.4708 130.5 90.8173 130.236 90.2893 129.708C89.7631 129.182 89.5 128.529 89.5 127.75C89.5 126.971 89.7631 126.317 90.2893 125.789C90.8173 125.263 91.4708 125 92.25 125H93.625C92.6625 123.487 91.7348 121.894 90.842 120.22C89.9473 118.548 89.5 116.475 89.5 114C89.5 109.783 90.9667 106.208 93.9 103.275C96.8333 100.342 100.408 98.875 104.625 98.875C107.237 98.875 109.598 99.4589 111.706 100.627C113.815 101.796 115.556 103.344 116.931 105.269C117.481 106.048 117.699 106.873 117.586 107.744C117.47 108.615 117 109.233 116.175 109.6C115.533 109.875 114.858 109.875 114.148 109.6C113.437 109.325 112.829 108.867 112.325 108.225C111.408 107.033 110.297 106.094 108.992 105.406C107.685 104.719 106.229 104.375 104.625 104.375C101.967 104.375 99.6979 105.315 97.8187 107.194C95.9396 109.073 95 111.342 95 114C95 116.2 95.55 118.033 96.65 119.5C97.75 120.967 98.8729 122.8 100.019 125H108.75C109.529 125 110.183 125.263 110.711 125.789C111.237 126.317 111.5 126.971 111.5 127.75C111.5 128.529 111.237 129.182 110.711 129.708C110.183 130.236 109.529 130.5 108.75 130.5H101.944C102.035 130.912 102.093 131.348 102.117 131.806C102.139 132.265 102.15 132.746 102.15 133.25C102.15 135.542 101.749 137.604 100.948 139.437C100.145 141.271 99.1708 142.875 98.025 144.25H111.5C112.692 144.25 113.712 144.032 114.561 143.595C115.408 143.161 116.083 142.554 116.587 141.775C117.092 140.996 117.687 140.481 118.375 140.229C119.062 139.976 119.727 140.033 120.369 140.4C121.285 140.858 121.779 141.477 121.848 142.256C121.916 143.035 121.721 143.815 121.262 144.594C120.3 146.198 118.948 147.458 117.206 148.375C115.465 149.292 113.562 149.75 111.5 149.75H92.8687Z" fill="#DBB13B"/>
<rect x="17.5" y="36.5" width="177" height="177" rx="88.5" stroke="#DBB13B" stroke-width="3"/>
</g>
<defs>
<clipPath id="clip0_263_387">
<rect width="212" height="243" fill="white"/>
</clipPath>
</defs>
</svg>
