<svg width="1918" height="509" viewBox="0 0 1918 509" fill="none" xmlns="http://www.w3.org/2000/svg">
<g clip-path="url(#clip0_390_289)">
<path d="M-32 -121.433C50.3101 -145.77 95.1249 -252.209 183.559 -235.161C271.994 -218.112 260.227 -99.6551 348.366 -99.6551C436.505 -99.6551 438.104 -239.237 537.996 -234.061C628.566 -229.367 551.617 -135.731 688.315 -93.0558C825.013 -50.3804 849.119 -248.735 951.028 -218.112C1039.95 -191.392 1026.46 -82.8636 1162.43 -61.5992C1298.41 -40.3347 1239.86 -171.587 1333.89 -171.587C1427.91 -171.587 1424.35 -44.661 1511.8 -50.3804C1599.24 -56.0998 1604.48 -107.775 1679 -126.492C1753.53 -145.21 1821.82 -64.9178 1918 -56.0998M-32 628.76C50.3101 604.423 95.1249 497.984 183.559 515.032C271.994 532.081 260.227 650.538 348.366 650.538C436.505 650.538 438.104 510.955 537.996 516.132C628.566 520.826 551.617 614.462 688.315 657.137C825.013 699.812 849.119 501.458 951.028 532.08C1039.95 558.8 1026.46 667.329 1162.43 688.594C1298.41 709.858 1239.86 578.605 1333.89 578.605C1427.91 578.605 1424.35 705.532 1511.8 699.812C1599.24 694.093 1604.48 642.418 1679 623.701C1753.53 604.983 1821.82 685.275 1918 694.093M-32 -103.135C50.3101 -127.472 95.1249 -233.911 183.559 -216.863C271.994 -199.815 260.227 -81.3576 348.366 -81.3576C436.505 -81.3576 438.104 -220.94 537.996 -215.763C628.566 -211.069 551.617 -117.434 688.315 -74.7583C825.013 -32.0829 849.119 -230.437 951.028 -199.815C1039.95 -173.095 1026.46 -64.5661 1162.43 -43.3017C1298.41 -22.0372 1239.86 -153.29 1333.89 -153.29C1427.91 -153.29 1424.35 -26.3635 1511.8 -32.0829C1599.24 -37.8023 1604.48 -89.477 1679 -108.195C1753.53 -126.912 1821.82 -46.6203 1918 -37.8023M-32 -84.8378C50.3101 -109.175 95.1249 -215.614 183.559 -198.566C271.994 -181.517 260.227 -63.0602 348.366 -63.0602C436.505 -63.0602 438.104 -202.642 537.996 -197.466C628.566 -192.772 551.617 -99.1363 688.315 -56.4609C825.013 -13.7855 849.119 -212.14 951.028 -181.517C1039.95 -154.797 1026.46 -46.2687 1162.43 -25.0043C1298.41 -3.73981 1239.86 -134.992 1333.89 -134.992C1427.91 -134.992 1424.35 -8.06613 1511.8 -13.7855C1599.24 -19.5049 1604.48 -71.1796 1679 -89.8973C1753.53 -108.615 1821.82 -28.3229 1918 -19.5049M-32 -66.5405C50.3101 -90.8774 95.1249 -197.317 183.559 -180.268C271.994 -163.22 260.227 -44.7628 348.366 -44.7628C436.505 -44.7628 438.104 -184.345 537.996 -179.168C628.566 -174.475 551.617 -80.8389 688.315 -38.1635C825.013 4.5119 849.119 -193.842 951.028 -163.22C1039.95 -136.5 1026.46 -27.9714 1162.43 -6.70689C1298.41 14.5576 1239.86 -116.695 1333.89 -116.695C1427.91 -116.695 1424.35 10.2313 1511.8 4.51188C1599.24 -1.2075 1604.48 -52.8822 1679 -71.5999C1753.53 -90.3176 1821.82 -10.0255 1918 -1.20749M-32 -48.2431C50.3101 -72.58 95.1249 -179.019 183.559 -161.971C271.994 -144.922 260.227 -26.4654 348.366 -26.4654C436.505 -26.4654 438.104 -166.048 537.996 -160.871C628.566 -156.177 551.617 -62.5415 688.315 -19.8661C825.013 22.8093 849.119 -175.545 951.028 -144.923C1039.95 -118.203 1026.46 -9.67397 1162.43 11.5905C1298.41 32.855 1239.86 -98.3977 1333.89 -98.3977C1427.91 -98.3977 1424.35 28.5286 1511.8 22.8093C1599.24 17.0899 1604.48 -34.5849 1679 -53.3025C1753.53 -72.0202 1821.82 8.27185 1918 17.0899M-32 -29.9457C50.3101 -54.2826 95.1249 -160.722 183.559 -143.673C271.994 -126.625 260.227 -8.16803 348.366 -8.16803C436.505 -8.16803 438.104 -147.75 537.996 -142.574C628.566 -137.88 551.617 -44.2441 688.315 -1.56873C825.013 41.1067 849.119 -157.248 951.028 -126.625C1039.95 -99.9052 1026.46 8.62341 1162.43 29.8879C1298.41 51.1523 1239.86 -80.1003 1333.89 -80.1003C1427.91 -80.1003 1424.35 46.826 1511.8 41.1067C1599.24 35.3873 1604.48 -16.2875 1679 -35.0051C1753.53 -53.7228 1821.82 26.5692 1918 35.3873M-32 -11.6483C50.3101 -35.9852 95.1249 -142.425 183.559 -125.376C271.994 -108.328 260.227 10.1294 348.366 10.1294C436.505 10.1294 438.104 -129.453 537.996 -124.276C628.566 -119.583 551.617 -25.9467 688.315 16.7287C825.013 59.4041 849.119 -138.95 951.028 -108.328C1039.95 -81.6079 1026.46 26.9208 1162.43 48.1853C1298.41 69.4497 1239.86 -61.8029 1333.89 -61.8029C1427.91 -61.8029 1424.35 65.1234 1511.8 59.404C1599.24 53.6847 1604.48 2.00991 1679 -16.7078C1753.53 -35.4254 1821.82 44.8666 1918 53.6847M-32 6.64908C50.3101 -17.6878 95.1249 -124.127 183.559 -107.079C271.994 -90.0302 260.227 28.4267 348.366 28.4267C436.505 28.4267 438.104 -111.156 537.996 -105.979C628.566 -101.285 551.617 -7.64936 688.315 35.026C825.013 77.7014 849.119 -120.653 951.028 -90.0305C1039.95 -63.3105 1026.46 45.2182 1162.43 66.4826C1298.41 87.7471 1239.86 -43.5055 1333.89 -43.5055C1427.91 -43.5055 1424.35 83.4208 1511.8 77.7014C1599.24 71.982 1604.48 20.3073 1679 1.58963C1753.53 -17.128 1821.82 63.164 1918 71.982M-32 24.9465C50.3101 0.609569 95.1249 -105.83 183.559 -88.7813C271.994 -71.7329 260.227 46.7241 348.366 46.7241C436.505 46.7241 438.104 -92.8581 537.996 -87.6814C628.566 -82.9878 551.617 10.648 688.315 53.3234C825.013 95.9988 849.119 -102.356 951.028 -71.7331C1039.95 -45.0131 1026.46 63.5156 1162.43 84.78C1298.41 106.044 1239.86 -25.2081 1333.89 -25.2081C1427.91 -25.2081 1424.35 101.718 1511.8 95.9988C1599.24 90.2794 1604.48 38.6047 1679 19.887C1753.53 1.16936 1821.82 81.4614 1918 90.2794M-32 43.2439C50.3101 18.907 95.1249 -87.5324 183.559 -70.4839C271.994 -53.4355 260.227 65.0215 348.366 65.0215C436.505 65.0215 438.104 -74.5607 537.996 -69.384C628.566 -64.6904 551.617 28.9454 688.315 71.6208C825.013 114.296 849.119 -84.0581 951.028 -53.4358C1039.95 -26.7157 1026.46 81.813 1162.43 103.077C1298.41 124.342 1239.86 -6.91075 1333.89 -6.91075C1427.91 -6.91075 1424.35 120.016 1511.8 114.296C1599.24 108.577 1604.48 56.9021 1679 38.1844C1753.53 19.4667 1821.82 99.7588 1918 108.577M-32 61.5412C50.3101 37.2043 95.1249 -69.235 183.559 -52.1865C271.994 -35.1381 260.227 83.3189 348.366 83.3189C436.505 83.3189 438.104 -56.2634 537.996 -51.0867C628.566 -46.393 551.617 47.2428 688.315 89.9182C825.013 132.594 849.119 -65.7607 951.028 -35.1384C1039.95 -8.41832 1026.46 100.11 1162.43 121.375C1298.41 142.639 1239.86 11.3866 1333.89 11.3866C1427.91 11.3866 1424.35 138.313 1511.8 132.594C1599.24 126.874 1604.48 75.1994 1679 56.4818C1753.53 37.7641 1821.82 118.056 1918 126.874M-32 79.8386C50.3101 55.5017 95.1249 -50.9376 183.559 -33.8891C271.994 -16.8407 260.227 101.616 348.366 101.616C436.505 101.616 438.104 -37.966 537.996 -32.7893C628.566 -28.0956 551.617 65.5402 688.315 108.216C825.013 150.891 849.119 -47.4634 951.028 -16.841C1039.95 9.87907 1026.46 118.408 1162.43 139.672C1298.41 160.937 1239.86 29.684 1333.89 29.684C1427.91 29.684 1424.35 156.61 1511.8 150.891C1599.24 145.172 1604.48 93.4968 1679 74.7792C1753.53 56.0615 1821.82 136.354 1918 145.172M-32 98.136C50.3101 73.7991 95.1249 -32.6402 183.559 -15.5918C271.994 1.45669 260.227 119.914 348.366 119.914C436.505 119.914 438.104 -19.6686 537.996 -14.4919C628.566 -9.79823 551.617 83.8376 688.315 126.513C825.013 169.188 849.119 -29.166 951.028 1.45639C1039.95 28.1765 1026.46 136.705 1162.43 157.97C1298.41 179.234 1239.86 47.9814 1333.89 47.9814C1427.91 47.9814 1424.35 174.908 1511.8 169.188C1599.24 163.469 1604.48 111.794 1679 93.0766C1753.53 74.3589 1821.82 154.651 1918 163.469M-32 116.433C50.3101 92.0965 95.1249 -14.3428 183.559 2.70562C271.994 19.7541 260.227 138.211 348.366 138.211C436.505 138.211 438.104 -1.37121 537.996 3.8055C628.566 8.49916 551.617 102.135 688.315 144.81C825.013 187.486 849.119 -10.8686 951.028 19.7538C1039.95 46.4738 1026.46 155.003 1162.43 176.267C1298.41 197.531 1239.86 66.2788 1333.89 66.2788C1427.91 66.2788 1424.35 193.205 1511.8 187.486C1599.24 181.766 1604.48 130.092 1679 111.374C1753.53 92.6563 1821.82 172.948 1918 181.766M-32 134.731C50.3101 110.394 95.1249 3.95456 183.559 21.003C271.994 38.0515 260.227 156.508 348.366 156.508C436.505 156.508 438.104 16.9262 537.996 22.1029C628.566 26.7965 551.617 120.432 688.315 163.108C825.013 205.783 849.119 7.4288 951.028 38.0512C1039.95 64.7712 1026.46 173.3 1162.43 194.564C1298.41 215.829 1239.86 84.5762 1333.89 84.5762C1427.91 84.5762 1424.35 211.502 1511.8 205.783C1599.24 200.064 1604.48 148.389 1679 129.671C1753.53 110.954 1821.82 191.246 1918 200.064M-32 153.028C50.3101 128.691 95.1249 22.2519 183.559 39.3004C271.994 56.3488 260.227 174.806 348.366 174.806C436.505 174.806 438.104 35.2236 537.996 40.4003C628.566 45.0939 551.617 138.73 688.315 181.405C825.013 224.08 849.119 25.7262 951.028 56.3485C1039.95 83.0686 1026.46 191.597 1162.43 212.862C1298.41 234.126 1239.86 102.874 1333.89 102.874C1427.91 102.874 1424.35 229.8 1511.8 224.08C1599.24 218.361 1604.48 166.686 1679 147.969C1753.53 129.251 1821.82 209.543 1918 218.361M-32 171.326C50.3101 146.989 95.1249 40.5493 183.559 57.5978C271.994 74.6462 260.227 193.103 348.366 193.103C436.505 193.103 438.104 53.5209 537.996 58.6977C628.566 63.3913 551.617 157.027 688.315 199.702C825.013 242.378 849.119 44.0236 951.028 74.6459C1039.95 101.366 1026.46 209.895 1162.43 231.159C1298.41 252.424 1239.86 121.171 1333.89 121.171C1427.91 121.171 1424.35 248.097 1511.8 242.378C1599.24 236.658 1604.48 184.984 1679 166.266C1753.53 147.548 1821.82 227.84 1918 236.659M-32 189.623C50.3101 165.286 95.1249 58.8467 183.559 75.8952C271.994 92.9436 260.227 211.401 348.366 211.401C436.505 211.401 438.104 71.8183 537.996 76.995C628.566 81.6887 551.617 175.324 688.315 218C825.013 260.675 849.119 62.321 951.028 92.9433C1039.95 119.663 1026.46 228.192 1162.43 249.457C1298.41 270.721 1239.86 139.468 1333.89 139.468C1427.91 139.468 1424.35 266.395 1511.8 260.675C1599.24 254.956 1604.48 203.281 1679 184.563C1753.53 165.846 1821.82 246.138 1918 254.956M-32 207.92C50.3101 183.583 95.1249 77.1441 183.559 94.1925C271.994 111.241 260.227 229.698 348.366 229.698C436.505 229.698 438.104 90.1157 537.996 95.2924C628.566 99.9861 551.617 193.622 688.315 236.297C825.013 278.973 849.119 80.6183 951.028 111.241C1039.95 137.961 1026.46 246.489 1162.43 267.754C1298.41 289.018 1239.86 157.766 1333.89 157.766C1427.91 157.766 1424.35 284.692 1511.8 278.973C1599.24 273.253 1604.48 221.579 1679 202.861C1753.53 184.143 1821.82 264.435 1918 273.253M-32 226.218C50.3101 201.881 95.1249 95.4415 183.559 112.49C271.994 129.538 260.227 247.995 348.366 247.995C436.505 247.995 438.104 108.413 537.996 113.59C628.566 118.283 551.617 211.919 688.315 254.595C825.013 297.27 849.119 98.9157 951.028 129.538C1039.95 156.258 1026.46 264.787 1162.43 286.051C1298.41 307.316 1239.86 176.063 1333.89 176.063C1427.91 176.063 1424.35 302.989 1511.8 297.27C1599.24 291.551 1604.48 239.876 1679 221.158C1753.53 202.441 1821.82 282.733 1918 291.551M-32 244.515C50.3101 220.178 95.1249 113.739 183.559 130.787C271.994 147.836 260.227 266.293 348.366 266.293C436.505 266.293 438.104 126.71 537.996 131.887C628.566 136.581 551.617 230.217 688.315 272.892C825.013 315.567 849.119 117.213 951.028 147.835C1039.95 174.556 1026.46 283.084 1162.43 304.349C1298.41 325.613 1239.86 194.36 1333.89 194.36C1427.91 194.36 1424.35 321.287 1511.8 315.567C1599.24 309.848 1604.48 258.173 1679 239.456C1753.53 220.738 1821.82 301.03 1918 309.848M-32 262.812C50.3101 238.476 95.1249 132.036 183.559 149.085C271.994 166.133 260.227 284.59 348.366 284.59C436.505 284.59 438.104 145.008 537.996 150.185C628.566 154.878 551.617 248.514 688.315 291.189C825.013 333.865 849.119 135.511 951.028 166.133C1039.95 192.853 1026.46 301.382 1162.43 322.646C1298.41 343.911 1239.86 212.658 1333.89 212.658C1427.91 212.658 1424.35 339.584 1511.8 333.865C1599.24 328.145 1604.48 276.471 1679 257.753C1753.53 239.035 1821.82 319.327 1918 328.145M-32 281.11C50.3101 256.773 95.1249 150.334 183.559 167.382C271.994 184.431 260.227 302.887 348.366 302.887C436.505 302.887 438.104 163.305 537.996 168.482C628.566 173.176 551.617 266.811 688.315 309.487C825.013 352.162 849.119 153.808 951.028 184.43C1039.95 211.15 1026.46 319.679 1162.43 340.943C1298.41 362.208 1239.86 230.955 1333.89 230.955C1427.91 230.955 1424.35 357.882 1511.8 352.162C1599.24 346.443 1604.48 294.768 1679 276.05C1753.53 257.333 1821.82 337.625 1918 346.443M-32 299.407C50.3101 275.07 95.1249 168.631 183.559 185.679C271.994 202.728 260.227 321.185 348.366 321.185C436.505 321.185 438.104 181.603 537.996 186.779C628.566 191.473 551.617 285.109 688.315 327.784C825.013 370.46 849.119 172.105 951.028 202.728C1039.95 229.448 1026.46 337.976 1162.43 359.241C1298.41 380.505 1239.86 249.253 1333.89 249.253C1427.91 249.253 1424.35 376.179 1511.8 370.46C1599.24 364.74 1604.48 313.065 1679 294.348C1753.53 275.63 1821.82 355.922 1918 364.74M-32 317.705C50.3101 293.368 95.1249 186.928 183.559 203.977C271.994 221.025 260.227 339.482 348.366 339.482C436.505 339.482 438.104 199.9 537.996 205.077C628.566 209.77 551.617 303.406 688.315 346.082C825.013 388.757 849.119 190.403 951.028 221.025C1039.95 247.745 1026.46 356.274 1162.43 377.538C1298.41 398.803 1239.86 267.55 1333.89 267.55C1427.91 267.55 1424.35 394.476 1511.8 388.757C1599.24 383.038 1604.48 331.363 1679 312.645C1753.53 293.928 1821.82 374.22 1918 383.038M-32 336.002C50.3101 311.665 95.1249 205.226 183.559 222.274C271.994 239.323 260.227 357.78 348.366 357.78C436.505 357.78 438.104 218.197 537.996 223.374C628.566 228.068 551.617 321.704 688.315 364.379C825.013 407.054 849.119 208.7 951.028 239.322C1039.95 266.042 1026.46 374.571 1162.43 395.836C1298.41 417.1 1239.86 285.847 1333.89 285.847C1427.91 285.847 1424.35 412.774 1511.8 407.054C1599.24 401.335 1604.48 349.66 1679 330.943C1753.53 312.225 1821.82 392.517 1918 401.335M-32 354.299C50.3101 329.962 95.1249 223.523 183.559 240.572C271.994 257.62 260.227 376.077 348.366 376.077C436.505 376.077 438.104 236.495 537.996 241.672C628.566 246.365 551.617 340.001 688.315 382.676C825.013 425.352 849.119 226.997 951.028 257.62C1039.95 284.34 1026.46 392.869 1162.43 414.133C1298.41 435.397 1239.86 304.145 1333.89 304.145C1427.91 304.145 1424.35 431.071 1511.8 425.352C1599.24 419.632 1604.48 367.958 1679 349.24C1753.53 330.522 1821.82 410.814 1918 419.632M-32 372.597C50.3101 348.26 95.1249 241.821 183.559 258.869C271.994 275.917 260.227 394.374 348.366 394.374C436.505 394.374 438.104 254.792 537.996 259.969C628.566 264.663 551.617 358.298 688.315 400.974C825.013 443.649 849.119 245.295 951.028 275.917C1039.95 302.637 1026.46 411.166 1162.43 432.43C1298.41 453.695 1239.86 322.442 1333.89 322.442C1427.91 322.442 1424.35 449.368 1511.8 443.649C1599.24 437.93 1604.48 386.255 1679 367.537C1753.53 348.82 1821.82 429.112 1918 437.93M-32 390.894C50.3101 366.557 95.1249 260.118 183.559 277.166C271.994 294.215 260.227 412.672 348.366 412.672C436.505 412.672 438.104 273.09 537.996 278.266C628.566 282.96 551.617 376.596 688.315 419.271C825.013 461.947 849.119 263.592 951.028 294.215C1039.95 320.935 1026.46 429.463 1162.43 450.728C1298.41 471.992 1239.86 340.74 1333.89 340.74C1427.91 340.74 1424.35 467.666 1511.8 461.946C1599.24 456.227 1604.48 404.552 1679 385.835C1753.53 367.117 1821.82 447.409 1918 456.227M-32 409.192C50.3101 384.855 95.1249 278.415 183.559 295.464C271.994 312.512 260.227 430.969 348.366 430.969C436.505 430.969 438.104 291.387 537.996 296.564C628.566 301.257 551.617 394.893 688.315 437.568C825.013 480.244 849.119 281.89 951.028 312.512C1039.95 339.232 1026.46 447.761 1162.43 469.025C1298.41 490.29 1239.86 359.037 1333.89 359.037C1427.91 359.037 1424.35 485.963 1511.8 480.244C1599.24 474.524 1604.48 422.85 1679 404.132C1753.53 385.414 1821.82 465.706 1918 474.525M-32 427.489C50.3101 403.152 95.1249 296.713 183.559 313.761C271.994 330.81 260.227 449.267 348.366 449.267C436.505 449.267 438.104 309.684 537.996 314.861C628.566 319.555 551.617 413.19 688.315 455.866C825.013 498.541 849.119 300.187 951.028 330.809C1039.95 357.529 1026.46 466.058 1162.43 487.323C1298.41 508.587 1239.86 377.334 1333.89 377.334C1427.91 377.334 1424.35 504.261 1511.8 498.541C1599.24 492.822 1604.48 441.147 1679 422.429C1753.53 403.712 1821.82 484.004 1918 492.822M-32 445.786C50.3101 421.449 95.1249 315.01 183.559 332.059C271.994 349.107 260.227 467.564 348.366 467.564C436.505 467.564 438.104 327.982 537.996 333.158C628.566 337.852 551.617 431.488 688.315 474.163C825.013 516.839 849.119 318.484 951.028 349.107C1039.95 375.827 1026.46 484.355 1162.43 505.62C1298.41 526.884 1239.86 395.632 1333.89 395.632C1427.91 395.632 1424.35 522.558 1511.8 516.839C1599.24 511.119 1604.48 459.445 1679 440.727C1753.53 422.009 1821.82 502.301 1918 511.119M-32 464.084C50.3101 439.747 95.1249 333.307 183.559 350.356C271.994 367.404 260.227 485.861 348.366 485.861C436.505 485.861 438.104 346.279 537.996 351.456C628.566 356.149 551.617 449.785 688.315 492.461C825.013 535.136 849.119 336.782 951.028 367.404C1039.95 394.124 1026.46 502.653 1162.43 523.917C1298.41 545.182 1239.86 413.929 1333.89 413.929C1427.91 413.929 1424.35 540.855 1511.8 535.136C1599.24 529.417 1604.48 477.742 1679 459.024C1753.53 440.307 1821.82 520.599 1918 529.417M-32 482.381C50.3101 458.044 95.1249 351.605 183.559 368.653C271.994 385.702 260.227 504.159 348.366 504.159C436.505 504.159 438.104 364.577 537.996 369.753C628.566 374.447 551.617 468.083 688.315 510.758C825.013 553.433 849.119 355.079 951.028 385.701C1039.95 412.422 1026.46 520.95 1162.43 542.215C1298.41 563.479 1239.86 432.226 1333.89 432.226C1427.91 432.226 1424.35 559.153 1511.8 553.433C1599.24 547.714 1604.48 496.039 1679 477.322C1753.53 458.604 1821.82 538.896 1918 547.714M-32 500.678C50.3101 476.342 95.1249 369.902 183.559 386.951C271.994 403.999 260.227 522.456 348.366 522.456C436.505 522.456 438.104 382.874 537.996 388.051C628.566 392.744 551.617 486.38 688.315 529.055C825.013 571.731 849.119 373.377 951.028 403.999C1039.95 430.719 1026.46 539.248 1162.43 560.512C1298.41 581.777 1239.86 450.524 1333.89 450.524C1427.91 450.524 1424.35 577.45 1511.8 571.731C1599.24 566.011 1604.48 514.337 1679 495.619C1753.53 476.901 1821.82 557.193 1918 566.011M-32 518.976C50.3101 494.639 95.1249 388.2 183.559 405.248C271.994 422.297 260.227 540.753 348.366 540.753C436.505 540.753 438.104 401.171 537.996 406.348C628.566 411.042 551.617 504.677 688.315 547.353C825.013 590.028 849.119 391.674 951.028 422.296C1039.95 449.016 1026.46 557.545 1162.43 578.809C1298.41 600.074 1239.86 468.821 1333.89 468.821C1427.91 468.821 1424.35 595.748 1511.8 590.028C1599.24 584.309 1604.48 532.634 1679 513.916C1753.53 495.199 1821.82 575.491 1918 584.309M-32 537.273C50.3101 512.936 95.1249 406.497 183.559 423.545C271.994 440.594 260.227 559.051 348.366 559.051C436.505 559.051 438.104 419.469 537.996 424.645C628.566 429.339 551.617 522.975 688.315 565.65C825.013 608.326 849.119 409.971 951.028 440.594C1039.95 467.314 1026.46 575.842 1162.43 597.107C1298.41 618.371 1239.86 487.119 1333.89 487.119C1427.91 487.119 1424.35 614.045 1511.8 608.326C1599.24 602.606 1604.48 550.931 1679 532.214C1753.53 513.496 1821.82 593.788 1918 602.606M-32 555.571C50.3101 531.234 95.1249 424.794 183.559 441.843C271.994 458.891 260.227 577.348 348.366 577.348C436.505 577.348 438.104 437.766 537.996 442.943C628.566 447.636 551.617 541.272 688.315 583.948C825.013 626.623 849.119 428.269 951.028 458.891C1039.95 485.611 1026.46 594.14 1162.43 615.404C1298.41 636.669 1239.86 505.416 1333.89 505.416C1427.91 505.416 1424.35 632.342 1511.8 626.623C1599.24 620.904 1604.48 569.229 1679 550.511C1753.53 531.793 1821.82 612.086 1918 620.904M-32 573.868C50.3101 549.531 95.1249 443.092 183.559 460.14C271.994 477.189 260.227 595.646 348.366 595.646C436.505 595.646 438.104 456.063 537.996 461.24C628.566 465.934 551.617 559.57 688.315 602.245C825.013 644.92 849.119 446.566 951.028 477.188C1039.95 503.908 1026.46 612.437 1162.43 633.702C1298.41 654.966 1239.86 523.713 1333.89 523.713C1427.91 523.713 1424.35 650.64 1511.8 644.92C1599.24 639.201 1604.48 587.526 1679 568.809C1753.53 550.091 1821.82 630.383 1918 639.201M-32 592.165C50.3101 567.829 95.1249 461.389 183.559 478.438C271.994 495.486 260.227 613.943 348.366 613.943C436.505 613.943 438.104 474.361 537.996 479.538C628.566 484.231 551.617 577.867 688.315 620.542C825.013 663.218 849.119 464.863 951.028 495.486C1039.95 522.206 1026.46 630.735 1162.43 651.999C1298.41 673.263 1239.86 542.011 1333.89 542.011C1427.91 542.011 1424.35 668.937 1511.8 663.218C1599.24 657.498 1604.48 605.824 1679 587.106C1753.53 568.388 1821.82 648.68 1918 657.498M-32 610.463C50.3101 586.126 95.1249 479.687 183.559 496.735C271.994 513.783 260.227 632.24 348.366 632.24C436.505 632.24 438.104 492.658 537.996 497.835C628.566 502.529 551.617 596.164 688.315 638.84C825.013 681.515 849.119 483.161 951.028 513.783C1039.95 540.503 1026.46 649.032 1162.43 670.296C1298.41 691.561 1239.86 560.308 1333.89 560.308C1427.91 560.308 1424.35 687.234 1511.8 681.515C1599.24 675.796 1604.48 624.121 1679 605.403C1753.53 586.686 1821.82 666.978 1918 675.796" stroke="url(#paint0_linear_390_289)"/>
</g>
<defs>
<linearGradient id="paint0_linear_390_289" x1="1857.5" y1="499.5" x2="603" y2="75.5001" gradientUnits="userSpaceOnUse">
<stop stop-color="#DBB13B" stop-opacity="0.33"/>
<stop offset="1" stop-color="#DBB13B" stop-opacity="0.07"/>
</linearGradient>
<clipPath id="clip0_390_289">
<rect width="1918" height="509" fill="white"/>
</clipPath>
</defs>
</svg>
