<svg width="36" height="37" viewBox="0 0 36 37" fill="none" xmlns="http://www.w3.org/2000/svg">
<path fill-rule="evenodd" clip-rule="evenodd" d="M20.0918 1.64337C18.9209 0.471741 17.0205 0.471741 15.8496 1.64337L0.878906 16.6138C-0.292969 17.7855 -0.292969 19.6849 0.878906 20.8565L15.8496 35.8272C17.0205 36.9986 18.9209 36.9986 20.0918 35.8272L35.0625 20.8565C36.2344 19.6849 36.2344 17.7855 35.0625 16.6138L20.0918 1.64337ZM23.1846 20.3692C24.0283 20.7603 24.7959 21.2969 25.4531 21.9547C26.8916 23.3904 27.7051 25.2857 27.7578 27.3067C27.7588 27.3348 27.7539 27.3626 27.7432 27.3887C27.7363 27.4063 27.7275 27.4227 27.7168 27.4378L27.6982 27.4588C27.6787 27.4788 27.6553 27.4947 27.6289 27.5057C27.6035 27.5164 27.5762 27.522 27.5479 27.522H26.0781C25.9648 27.522 25.8701 27.4327 25.8682 27.3199C25.8154 25.7974 25.1982 24.3721 24.1172 23.2906C22.9854 22.1592 21.4814 21.5372 19.8828 21.5372C19.0957 21.535 18.3174 21.6888 17.5898 21.9898C16.8633 22.2908 16.2031 22.733 15.6484 23.2906C14.5645 24.3721 13.9473 25.7974 13.8975 27.3199C13.8955 27.4327 13.8008 27.522 13.6875 27.522H12.2178C12.1895 27.522 12.1621 27.5164 12.1367 27.5057C12.1104 27.4947 12.0869 27.4788 12.0674 27.4588C12.0537 27.4444 12.042 27.4283 12.0322 27.4107L12.0225 27.3887L12.0117 27.3526C12.0088 27.3375 12.0068 27.3221 12.0078 27.3067C12.0605 25.2857 12.874 23.3904 14.3076 21.9547C14.9639 21.2967 15.7314 20.7601 16.5752 20.3692C15.3887 19.4058 14.6279 17.9359 14.6279 16.2874C14.6279 13.4156 16.9346 11.0821 19.7988 11.0374C22.707 10.993 25.1328 13.379 25.1328 16.2874C25.1328 17.9359 24.374 19.4058 23.1846 20.3692ZM17.5068 18.6629C18.1396 19.2982 18.9854 19.6473 19.8828 19.6473C20.3242 19.6485 20.7627 19.5623 21.1709 19.3934C21.5791 19.2242 21.9492 18.9761 22.2607 18.6629C22.8965 18.0276 23.2451 17.1851 23.2451 16.2874C23.2451 15.3792 22.8887 14.5259 22.2373 13.8882C21.6025 13.2662 20.7383 12.9195 19.8486 12.9276C19.3799 12.9329 18.9268 13.033 18.5117 13.2188C18.1289 13.39 17.7773 13.6339 17.4756 13.9434C16.875 14.5601 16.5303 15.3922 16.5225 16.2532C16.5166 16.7005 16.6006 17.1443 16.7695 17.5582C16.9385 17.9722 17.1895 18.348 17.5068 18.6629ZM13.2705 16.2874C13.2705 16.5211 13.2832 16.752 13.3076 16.9803C13.3203 17.0853 13.252 17.1824 13.1494 17.2088C12.6387 17.3375 12.1494 17.5335 11.6914 17.7923C11.2246 18.0562 10.791 18.3858 10.4014 18.7757C9.31738 19.8572 8.7002 21.2825 8.65039 22.805C8.64746 22.918 8.55371 23.0071 8.44043 23.0071H6.96777C6.93945 23.0071 6.91211 23.0015 6.88672 22.9908C6.86035 22.9798 6.83691 22.9639 6.81738 22.9439C6.80371 22.9297 6.79199 22.9139 6.7832 22.8965L6.77246 22.8738C6.76172 22.8477 6.75684 22.8199 6.75781 22.7918C6.81055 20.7681 7.62402 18.8729 9.0625 17.4371C9.72949 16.7703 10.498 16.2376 11.333 15.8516C10.1445 14.8882 9.38574 13.4183 9.38574 11.7698C9.38574 8.86407 11.8105 6.47809 14.7217 6.52277C16.7383 6.55426 18.4814 7.71954 19.334 9.40753C19.3994 9.53864 19.3154 9.69611 19.1689 9.71198C18.667 9.76447 18.1787 9.87726 17.7168 10.0374C17.6279 10.0689 17.5254 10.0347 17.4727 9.95343C17.3232 9.72247 17.1445 9.50714 16.9375 9.31305C16.3262 8.74078 15.5176 8.41779 14.6797 8.40997C13.7539 8.39948 12.8818 8.76178 12.2334 9.42584C11.6426 10.0296 11.3047 10.8301 11.2803 11.6727C11.2666 12.1378 11.3496 12.6006 11.5244 13.0318C11.6992 13.463 11.9629 13.8531 12.2969 14.1768C12.4307 14.3079 12.5732 14.4261 12.7246 14.5313C12.8955 14.6495 13.0762 14.751 13.2656 14.8358C13.2852 14.8445 13.3027 14.8563 13.3174 14.8702C13.3701 14.9185 13.3975 14.9935 13.3838 15.0667C13.3096 15.4632 13.2705 15.8699 13.2705 16.2874Z" fill="white"/>
</svg>
