<svg width="36" height="36" viewBox="0 0 36 36" fill="none" xmlns="http://www.w3.org/2000/svg">
<path fill-rule="evenodd" clip-rule="evenodd" d="M15.8492 0.878679C17.0208 -0.292893 18.9203 -0.292893 20.0919 0.87868L35.0624 15.8492C36.234 17.0208 36.234 18.9203 35.0624 20.0919L20.0919 35.0624C18.9203 36.234 17.0208 36.234 15.8492 35.0624L0.87868 20.0919C-0.292893 18.9203 -0.292893 17.0208 0.87868 15.8492L15.8492 0.878679ZM17.1624 4.09215C17.6087 3.64584 18.3323 3.64584 18.7786 4.09215L29.6357 14.9492C29.9626 15.2761 30.0603 15.7676 29.8834 16.1947C29.7066 16.6217 29.2898 16.9002 28.8276 16.9002H27.5578V24.2017C27.5578 25.1447 27.1832 26.0491 26.5164 26.7159C25.8496 27.3827 24.9452 27.7573 24.0022 27.7573H11.9388C10.9958 27.7573 10.0915 27.3827 9.42467 26.7159C8.75788 26.0491 8.38328 25.1447 8.38328 24.2017V16.9002H7.11344C6.6512 16.9002 6.23448 16.6217 6.05759 16.1947C5.8807 15.7676 5.97847 15.2761 6.30533 14.9492L17.1624 4.09215ZM9.83132 14.6557C10.3143 14.7892 10.669 15.2319 10.669 15.7573V24.2017C10.669 24.5385 10.8028 24.8615 11.0409 25.0996C11.279 25.3378 11.602 25.4716 11.9388 25.4716H24.0022C24.339 25.4716 24.662 25.3378 24.9001 25.0996C25.1383 24.8615 25.2721 24.5385 25.2721 24.2017V15.7573C25.2721 15.2319 25.6267 14.7892 26.1097 14.6557L17.9705 6.5165L9.83132 14.6557ZM15.5577 14.6146C14.9266 14.6146 14.4149 15.1263 14.4149 15.7574V20.5828C14.4149 21.214 14.9266 21.7257 15.5577 21.7257H20.3831C21.0143 21.7257 21.526 21.214 21.526 20.5828V15.7574C21.526 15.1263 21.0143 14.6146 20.3831 14.6146H15.5577ZM16.7006 19.44V16.9003H19.2403V19.44H16.7006Z" fill="white"/>
</svg>
