<svg width="36" height="37" viewBox="0 0 36 37" fill="none" xmlns="http://www.w3.org/2000/svg">
<path fill-rule="evenodd" clip-rule="evenodd" d="M20.0918 1.58453C18.9209 0.412903 17.0205 0.412903 15.8496 1.58453L0.878906 16.555C-0.292969 17.7266 -0.292969 19.626 0.878906 20.7977L15.8496 35.7684C17.0205 36.9398 18.9209 36.9398 20.0918 35.7684L35.0625 20.7977C36.2344 19.626 36.2344 17.7266 35.0625 16.555L20.0918 1.58453ZM13.8955 22.7015C12.7041 23.261 11.6582 24.0264 10.7578 24.9981V10.8631H24.7578V24.9981C23.8574 24.0264 22.8125 23.261 21.6211 22.7015C20.4287 22.1426 19.1416 21.8631 17.7578 21.8631C16.374 21.8631 15.0869 22.1426 13.8955 22.7015ZM17.2334 19.6243C17.4033 19.6502 17.5781 19.6631 17.7578 19.6631C18.7246 19.6631 19.5498 19.2874 20.2324 18.5357C20.916 17.784 21.2578 16.8765 21.2578 15.8133C21.2578 14.7498 20.916 13.8423 20.2324 13.0906C19.5498 12.3389 18.7246 11.9632 17.7578 11.9632C17.2725 11.9632 16.8223 12.0579 16.4082 12.2474C15.998 12.4354 15.623 12.7164 15.2832 13.0906C14.5996 13.8423 14.2578 14.7498 14.2578 15.8133C14.2578 16.8765 14.5996 17.784 15.2832 18.5357C15.8389 19.1478 16.4893 19.5106 17.2334 19.6243ZM9.34473 27.8174C9.73633 28.2479 10.208 28.4632 10.7578 28.4632H24.7578C25.3076 28.4632 25.7793 28.2479 26.1709 27.8174C26.5625 27.3863 26.7578 26.8682 26.7578 26.2632V10.8631C26.7578 10.2581 26.5625 9.74054 26.1709 9.30988C25.7793 8.87872 25.3076 8.66315 24.7578 8.66315H23.7578V7.56329C23.7578 7.25153 23.6621 6.99005 23.4697 6.77887C23.3438 6.64044 23.1982 6.54767 23.0322 6.50031C22.9463 6.47565 22.8545 6.4632 22.7578 6.4632C22.4746 6.4632 22.2373 6.56842 22.0459 6.77887C21.9805 6.85114 21.9258 6.92926 21.8828 7.01349C21.7988 7.17511 21.7578 7.35822 21.7578 7.56329V8.66315H13.7578V7.56329C13.7578 7.25153 13.6621 6.99005 13.4707 6.77887C13.2793 6.56842 13.041 6.4632 12.7578 6.4632C12.4746 6.4632 12.2363 6.56842 12.0449 6.77887C11.8535 6.99005 11.7578 7.25153 11.7578 7.56329V8.66315H10.7578C10.208 8.66315 9.73633 8.87872 9.34473 9.30988C8.95312 9.74054 8.75781 10.2581 8.75781 10.8631V26.2632C8.75781 26.8682 8.95312 27.3863 9.34473 27.8174Z" fill="#D9D9D9"/>
</svg>
