<svg width="36" height="37" viewBox="0 0 36 37" fill="none" xmlns="http://www.w3.org/2000/svg">
<path fill-rule="evenodd" clip-rule="evenodd" d="M20.0919 1.58449C18.9203 0.412917 17.0208 0.412917 15.8492 1.58449L0.87868 16.5551C-0.292893 17.7266 -0.292893 19.6261 0.87868 20.7977L15.8492 35.7683C17.0208 36.9398 18.9203 36.9398 20.0919 35.7683L35.0624 20.7977C36.234 19.6261 36.234 17.7266 35.0624 16.5551L20.0919 1.58449ZM13.8957 22.7014C12.7037 23.2609 11.6577 24.0265 10.7577 24.9982V10.8632H24.7577V24.9982C23.8577 24.0265 22.812 23.2609 21.6207 22.7014C20.4287 22.1426 19.141 21.8632 17.7577 21.8632C16.3743 21.8632 15.087 22.1426 13.8957 22.7014ZM15.2827 18.5357C15.966 19.2873 16.791 19.6632 17.7577 19.6632C18.7243 19.6632 19.5493 19.2873 20.2327 18.5357C20.916 17.784 21.2577 16.8765 21.2577 15.8132C21.2577 14.7498 20.916 13.8423 20.2327 13.0907C19.5493 12.339 18.7243 11.9632 17.7577 11.9632C16.791 11.9632 15.966 12.339 15.2827 13.0907C14.5993 13.8423 14.2577 14.7498 14.2577 15.8132C14.2577 16.8765 14.5993 17.784 15.2827 18.5357ZM9.34467 27.8175C9.73667 28.2479 10.2077 28.4632 10.7577 28.4632H24.7577C25.3077 28.4632 25.7787 28.2479 26.1707 27.8175C26.562 27.3863 26.7577 26.8682 26.7577 26.2632V10.8632C26.7577 10.2582 26.562 9.74044 26.1707 9.30997C25.7787 8.87877 25.3077 8.66317 24.7577 8.66317H23.7577V7.56317C23.7577 7.2515 23.6617 6.99007 23.4697 6.77887C23.2783 6.5684 23.041 6.46317 22.7577 6.46317C22.4743 6.46317 22.237 6.5684 22.0457 6.77887C21.8537 6.99007 21.7577 7.2515 21.7577 7.56317V8.66317H13.7577V7.56317C13.7577 7.2515 13.662 6.99007 13.4707 6.77887C13.2787 6.5684 13.041 6.46317 12.7577 6.46317C12.4743 6.46317 12.2367 6.5684 12.0447 6.77887C11.8533 6.99007 11.7577 7.2515 11.7577 7.56317V8.66317H10.7577C10.2077 8.66317 9.73667 8.87877 9.34467 9.30997C8.95334 9.74044 8.75767 10.2582 8.75767 10.8632V26.2632C8.75767 26.8682 8.95334 27.3863 9.34467 27.8175Z" fill="white"/>
</svg>
