<svg width="36" height="37" viewBox="0 0 36 37" fill="none" xmlns="http://www.w3.org/2000/svg">
<path fill-rule="evenodd" clip-rule="evenodd" d="M15.8496 1.81989C17.0205 0.648254 18.9209 0.648254 20.0918 1.81989L35.0625 16.7903C36.2344 17.962 36.2344 19.8614 35.0625 21.033L20.0918 36.0037C18.9209 37.1751 17.0205 37.1751 15.8496 36.0037L0.878906 21.033C-0.292969 19.8614 -0.292969 17.962 0.878906 16.7903L15.8496 1.81989ZM18.0908 6.69855C15.6514 6.69855 13.2676 7.42194 11.2393 8.77716C9.21094 10.1324 7.62988 12.0584 6.69629 14.3121C5.7627 16.5657 5.51855 19.0455 5.99512 21.438C6.4707 23.8304 7.64551 26.0279 9.37012 27.7527C11.0947 29.4776 13.293 30.6524 15.6846 31.1282C18.0771 31.6041 20.5576 31.3599 22.8105 30.4263C25.0645 29.493 26.9912 27.9122 28.3457 25.8839C29.7012 23.8558 30.4248 21.4713 30.4248 19.0318C30.4248 17.4122 30.1055 15.8084 29.4854 14.3121C29.2051 13.6343 28.8652 12.9847 28.4707 12.3702C28.2305 11.9959 27.9697 11.6346 27.6904 11.2881C27.416 10.9476 27.123 10.6214 26.8125 10.3109C25.667 9.16559 24.3076 8.25714 22.8105 7.63727C21.3145 7.01764 19.7109 6.69855 18.0908 6.69855ZM18.0908 28.8985C16.1396 28.8985 14.2324 28.3199 12.6094 27.2357C10.9873 26.1514 9.72266 24.6107 8.97559 22.8077C8.22852 21.0047 8.0332 19.0208 8.41406 17.107C8.79492 15.1929 9.73438 13.4349 11.1143 12.055C12.4941 10.6751 14.252 9.73541 16.166 9.3548C17.0791 9.17316 18.0078 9.12262 18.9258 9.2005C19.9316 9.28595 20.9238 9.5257 21.8672 9.91632C23.6699 10.6631 25.2109 11.9278 26.2949 13.5504C27.3789 15.1729 27.958 17.0804 27.958 19.0318C27.958 21.6487 26.918 24.1583 25.0684 26.0086C23.2178 27.8589 20.708 28.8985 18.0908 28.8985ZM15.9619 17.376C16.2793 17.616 16.8955 17.7986 18.0908 17.7986C22.3828 17.7986 23.0244 20.1172 23.0244 21.4986C23.0244 23.0897 21.791 24.6807 19.3242 25.0999V26.4319H16.8574V25.0999C13.9717 24.6436 13.1572 22.6334 13.1572 21.4986H15.624C15.624 21.6712 15.8213 22.732 18.0908 22.732C19.793 22.732 20.5576 21.8934 20.5576 21.4986C20.5576 21.1041 20.5576 20.2652 18.0908 20.2652C13.7988 20.2652 13.1572 17.9466 13.1572 16.5652C13.1572 14.9742 14.3906 13.3834 16.8574 12.9764V11.6319H19.3242V13.0132C20.1475 13.1812 20.8887 13.6243 21.4268 14.2701C21.9648 14.9156 22.2676 15.7252 22.2842 16.5652H19.8174C19.8047 16.1214 19.6943 15.3318 18.0908 15.3318C16.4873 15.3318 15.624 16.1089 15.624 16.5652C15.624 16.8004 15.624 17.1207 15.9619 17.376Z" fill="white"/>
</svg>
