<svg width="36" height="37" viewBox="0 0 36 37" fill="none" xmlns="http://www.w3.org/2000/svg">
<path fill-rule="evenodd" clip-rule="evenodd" d="M20.0918 1.70221C18.9209 0.530579 17.0205 0.530579 15.8496 1.70221L0.878906 16.6727C-0.292969 17.8443 -0.292969 19.7437 0.878906 20.9153L15.8496 35.886C17.0205 37.0574 18.9209 37.0574 20.0918 35.886L35.0625 20.9153C36.2344 19.7437 36.2344 17.8443 35.0625 16.6727L20.0918 1.70221ZM7.75781 11.5809L17.7578 6.58087L27.7578 11.5809V13.5809H7.75781V11.5809ZM22.4951 22.5809V15.5809H25.6523V22.5809H22.4951ZM27.7578 24.5809V27.5809H7.75781V24.5809H27.7578ZM16.1787 22.5809V15.5809H19.3369V22.5809H16.1787ZM9.86328 22.5809V15.5809H13.0205V22.5809H9.86328Z" fill="white"/>
</svg>
