<svg width="36" height="37" viewBox="0 0 36 37" fill="none" xmlns="http://www.w3.org/2000/svg">
<path fill-rule="evenodd" clip-rule="evenodd" d="M20.0918 1.76105C18.9209 0.589417 17.0205 0.589417 15.8496 1.76105L0.878906 16.7315C-0.292969 17.9031 -0.292969 19.8026 0.878906 20.9742L15.8496 35.9449C17.0205 37.1163 18.9209 37.1163 20.0918 35.9449L35.0625 20.9742C36.2344 19.8026 36.2344 17.9031 35.0625 16.7315L20.0918 1.76105ZM14.3164 19.1397H19.9316C20.1279 19.1397 20.3193 19.1878 20.4873 19.2772C20.5742 19.3233 20.6543 19.3804 20.7256 19.4473C20.9355 19.6441 21.0547 19.9112 21.0547 20.1898C21.0547 20.4681 20.9355 20.7352 20.7256 20.9322C20.5742 21.0735 20.3838 21.1705 20.1787 21.2139C20.0986 21.231 20.0156 21.2398 19.9316 21.2398H14.3164C14.0186 21.2398 13.7334 21.129 13.5225 20.9322C13.3115 20.7352 13.1934 20.4681 13.1934 20.1898C13.1934 19.9112 13.3115 19.6441 13.5225 19.4473C13.7334 19.2503 14.0186 19.1397 14.3164 19.1397ZM12.0703 27.5396H21.0547H21.1104C21.4082 27.5396 21.6943 27.6502 21.9043 27.8472C22.1152 28.0443 22.2334 28.3113 22.2334 28.5897C22.2334 28.8682 22.1152 29.1353 21.9043 29.3321C21.6943 29.5291 21.4082 29.6397 21.1104 29.6397H12.127C11.4961 29.6397 10.8838 29.4744 10.3564 29.1697C10.1367 29.0425 9.93066 28.8912 9.74414 28.7171C9.1123 28.1263 8.75781 27.325 8.75781 26.4898V11.7896C8.75781 10.9542 9.1123 10.1531 9.74414 9.56232C10.376 8.9715 11.2334 8.63971 12.127 8.63971H18.8643C18.9912 8.65607 19.1133 8.69537 19.2236 8.75519H19.3135C19.4336 8.80353 19.5439 8.87091 19.6396 8.95465L26.377 15.2547C26.4648 15.3416 26.5361 15.4407 26.5908 15.5486V15.6431C26.6328 15.733 26.6592 15.8289 26.6689 15.9268C26.6738 15.9476 26.6738 15.9691 26.6689 15.9898V18.0897C26.6689 18.3682 26.5508 18.6353 26.3398 18.8321C26.1299 19.0291 25.8438 19.1397 25.5459 19.1397C25.248 19.1397 24.9629 19.0291 24.752 18.8321C24.6191 18.7078 24.5225 18.5555 24.4697 18.3897C24.4395 18.2933 24.4229 18.1922 24.4229 18.0897V17.0396H21.0547C20.1611 17.0396 19.3037 16.7078 18.6719 16.117C18.04 15.5264 17.6855 14.7252 17.6855 13.8897V10.7398H12.0703C11.7725 10.7398 11.4873 10.8504 11.2764 11.0472C11.0654 11.2442 10.9473 11.5113 10.9473 11.7896V26.4898C10.9473 26.7681 11.0654 27.0352 11.2764 27.2322C11.4873 27.429 11.7725 27.5396 12.0703 27.5396ZM22.8281 14.9398L19.9316 12.2203V13.8897C19.9316 14.1683 20.0498 14.4354 20.2598 14.6321C20.4707 14.8292 20.7568 14.9398 21.0547 14.9398H22.8281ZM26.0176 27.7181C26.0762 27.7569 26.1328 27.7991 26.1865 27.8443C26.2891 27.9459 26.3721 28.063 26.4336 28.1907C26.5039 28.3506 26.5303 28.5242 26.5117 28.6961C26.501 28.7943 26.4756 28.8902 26.4365 28.981C26.4072 29.0496 26.3701 29.1151 26.3262 29.1766C26.2227 29.3199 26.083 29.4371 25.9199 29.5179C25.7559 29.5987 25.5742 29.6407 25.3887 29.6397C25.0947 29.6385 24.8115 29.5291 24.6025 29.3353C24.5508 29.2872 24.5049 29.2344 24.4639 29.178C24.4219 29.1199 24.3857 29.0582 24.3574 28.9935C24.2998 28.8655 24.2705 28.7283 24.2705 28.5897C24.2705 28.451 24.2998 28.3138 24.3574 28.1859C24.4141 28.0579 24.498 27.9417 24.6025 27.8443C24.7334 27.7232 24.8945 27.6341 25.0703 27.5845C25.1836 27.5528 25.3008 27.5379 25.418 27.5406C25.4834 27.5421 25.5488 27.5486 25.6133 27.5606C25.7578 27.5899 25.8945 27.6431 26.0176 27.7181ZM14.3164 23.3397H19.9316C20.2295 23.3397 20.5146 23.4503 20.7256 23.6473C20.9355 23.8441 21.0547 24.1111 21.0547 24.3897C21.0547 24.6683 20.9355 24.9354 20.7256 25.1321C20.625 25.2261 20.5078 25.3004 20.3799 25.3524C20.2393 25.4095 20.0869 25.4398 19.9316 25.4398H14.3164C14.0186 25.4398 13.7334 25.3292 13.5225 25.1321C13.3115 24.9354 13.1934 24.6683 13.1934 24.3897C13.1934 24.2227 13.2354 24.0601 13.3145 23.9141C13.3682 23.8165 13.4375 23.7261 13.5225 23.6473C13.7334 23.4503 14.0186 23.3397 14.3164 23.3397ZM23.7031 20.6111C24.2158 20.3348 24.7969 20.1893 25.3887 20.1898C26.2822 20.1898 27.1396 20.5215 27.7715 21.1124C28.4033 21.7029 28.7578 22.5042 28.7578 23.3397C28.7578 24.1751 28.4033 24.9764 27.7715 25.5672C27.1396 26.1578 26.2822 26.4898 25.3887 26.4898C25.0908 26.4898 24.8057 26.379 24.5947 26.1822C24.3838 25.9852 24.2656 25.7181 24.2656 25.4398C24.2656 25.1612 24.3838 24.8941 24.5947 24.6973C24.8057 24.5003 25.0908 24.3897 25.3887 24.3897C25.5859 24.3909 25.7803 24.3433 25.9521 24.2518C26.123 24.1605 26.2666 24.0281 26.3652 23.8687C26.4648 23.7093 26.5176 23.5281 26.5186 23.3436C26.5195 23.159 26.4678 22.9776 26.3701 22.8174C26.2715 22.6573 26.1299 22.5242 25.959 22.4317C25.7891 22.3389 25.5947 22.2901 25.3975 22.2896C25.2002 22.2894 25.0059 22.3377 24.835 22.43C24.6641 22.5223 24.5215 22.6548 24.4229 22.8148C24.3496 22.9346 24.251 23.0399 24.1338 23.1243C24.0166 23.2088 23.8828 23.2708 23.7402 23.3069C23.5967 23.3428 23.4482 23.3524 23.3018 23.3345C23.1543 23.3167 23.0127 23.272 22.8848 23.2032C22.7568 23.1343 22.6436 23.0423 22.5537 22.9327C22.501 22.8694 22.457 22.8011 22.4219 22.7291C22.3965 22.6761 22.375 22.6212 22.3584 22.5645C22.3193 22.4307 22.3096 22.2916 22.3291 22.1544C22.3379 22.0862 22.3545 22.0191 22.3779 21.9542C22.4014 21.8885 22.4316 21.825 22.4688 21.7647C22.7646 21.2855 23.1904 20.8878 23.7031 20.6111ZM15.4395 17.0396H14.3164C14.0186 17.0396 13.7334 16.929 13.5225 16.7322C13.3115 16.5352 13.1934 16.2681 13.1934 15.9898C13.1934 15.7112 13.3115 15.4442 13.5225 15.2471C13.7334 15.0504 14.0186 14.9398 14.3164 14.9398H15.4395C15.7373 14.9398 16.0225 15.0504 16.2334 15.2471C16.4443 15.4442 16.5625 15.7112 16.5625 15.9898C16.5625 16.2681 16.4443 16.5352 16.2334 16.7322C16.0225 16.929 15.7373 17.0396 15.4395 17.0396Z" fill="white"/>
</svg>
