<svg width="73" height="47" viewBox="0 0 73 47" fill="none" xmlns="http://www.w3.org/2000/svg">
<path d="M7.97538 37.0092H2.44246L1.32923 40H0.515077L4.80185 28.6018H5.63262L9.90277 40H9.08862L7.97538 37.0092ZM7.74277 36.3778L5.21723 29.5822L2.67508 36.3778H7.74277ZM12.1451 35.4806C12.1451 34.5502 12.3278 33.736 12.6934 33.0382C13.07 32.3403 13.5851 31.8031 14.2386 31.4265C14.9032 31.0498 15.6565 30.8615 16.4983 30.8615C17.4177 30.8615 18.2152 31.0942 18.8909 31.5594C19.5666 32.0135 20.0429 32.6062 20.3198 33.3372V27.7046H21.0675V40H20.3198V37.6074C20.054 38.3495 19.5888 38.9588 18.9241 39.4351C18.2595 39.9003 17.4509 40.1329 16.4983 40.1329C15.6565 40.1329 14.9032 39.9446 14.2386 39.568C13.5851 39.1803 13.07 38.6375 12.6934 37.9397C12.3278 37.2308 12.1451 36.4111 12.1451 35.4806ZM20.3198 35.4806C20.3198 34.6942 20.1537 34.0018 19.8214 33.4037C19.5001 32.7945 19.0571 32.3292 18.4921 32.008C17.9272 31.6757 17.2958 31.5095 16.598 31.5095C15.8669 31.5095 15.2245 31.6702 14.6706 31.9914C14.1168 32.3015 13.6848 32.7557 13.3746 33.3538C13.0645 33.952 12.9094 34.6609 12.9094 35.4806C12.9094 36.3003 13.0645 37.0092 13.3746 37.6074C13.6848 38.2055 14.1168 38.6652 14.6706 38.9865C15.2355 39.3077 15.878 39.4683 16.598 39.4683C17.2958 39.4683 17.9272 39.3077 18.4921 38.9865C19.0681 38.6542 19.5168 38.1889 19.838 37.5908C20.1592 36.9815 20.3198 36.2782 20.3198 35.4806ZM27.678 39.1858L31.0011 30.9778H31.7986L28.0601 40H27.2792L23.5408 30.9778H24.3549L27.678 39.1858ZM34.6606 28.9674C34.4834 28.9674 34.3338 28.912 34.212 28.8012C34.0901 28.6794 34.0292 28.5188 34.0292 28.3194C34.0292 28.1311 34.0901 27.976 34.212 27.8542C34.3338 27.7323 34.4834 27.6714 34.6606 27.6714C34.8378 27.6714 34.9874 27.7323 35.1092 27.8542C35.2311 27.976 35.292 28.1311 35.292 28.3194C35.292 28.5188 35.2311 28.6794 35.1092 28.8012C34.9874 28.912 34.8378 28.9674 34.6606 28.9674ZM35.0261 30.9778V40H34.2784V30.9778H35.0261ZM41.6052 40.1329C40.5972 40.1329 39.7719 39.9114 39.1295 39.4683C38.4981 39.0252 38.1436 38.3938 38.0661 37.5742H38.8304C38.8858 38.1612 39.1516 38.6265 39.6279 38.9698C40.1153 39.3132 40.7744 39.4849 41.6052 39.4849C42.2919 39.4849 42.8347 39.3132 43.2335 38.9698C43.6433 38.6154 43.8483 38.1834 43.8483 37.6738C43.8483 37.3194 43.7375 37.0314 43.5159 36.8098C43.3055 36.5772 43.0396 36.4 42.7184 36.2782C42.3972 36.1563 41.9596 36.0234 41.4058 35.8794C40.7412 35.7022 40.2039 35.5305 39.7941 35.3643C39.3843 35.1871 39.0353 34.9268 38.7473 34.5834C38.4593 34.24 38.3153 33.7803 38.3153 33.2043C38.3153 32.7834 38.4427 32.3957 38.6975 32.0412C38.9523 31.6757 39.3067 31.3877 39.7609 31.1772C40.215 30.9668 40.7301 30.8615 41.3061 30.8615C42.2476 30.8615 43.0064 31.0997 43.5824 31.576C44.1695 32.0412 44.4852 32.6892 44.5295 33.52H43.7818C43.7486 32.9218 43.5159 32.4345 43.0839 32.0578C42.6519 31.6812 42.0538 31.4929 41.2895 31.4929C40.647 31.4929 40.1153 31.6591 39.6944 31.9914C39.2735 32.3237 39.063 32.728 39.063 33.2043C39.063 33.6252 39.1793 33.9686 39.4119 34.2345C39.6556 34.4892 39.9492 34.6886 40.2926 34.8326C40.647 34.9655 41.1123 35.1095 41.6883 35.2646C42.3196 35.4308 42.8236 35.5969 43.2003 35.7631C43.5879 35.9182 43.9147 36.1508 44.1806 36.4609C44.4464 36.76 44.5793 37.1643 44.5793 37.6738C44.5793 38.1391 44.4519 38.56 44.1972 38.9366C43.9424 39.3132 43.5879 39.6068 43.1338 39.8172C42.6796 40.0277 42.1701 40.1329 41.6052 40.1329ZM51.6587 40.1329C50.8168 40.1329 50.058 39.9446 49.3823 39.568C48.7067 39.1914 48.175 38.6542 47.7873 37.9563C47.4107 37.2474 47.2223 36.4222 47.2223 35.4806C47.2223 34.5502 47.4162 33.736 47.8039 33.0382C48.1916 32.3292 48.7233 31.792 49.399 31.4265C50.0857 31.0498 50.85 30.8615 51.6919 30.8615C52.5337 30.8615 53.2925 31.0498 53.9682 31.4265C54.6439 31.792 55.17 32.3237 55.5467 33.0215C55.9343 33.7194 56.1282 34.5391 56.1282 35.4806C56.1282 36.4222 55.9343 37.2474 55.5467 37.9563C55.159 38.6542 54.6217 39.1914 53.935 39.568C53.2593 39.9446 52.5005 40.1329 51.6587 40.1329ZM51.6587 39.4683C52.3122 39.4683 52.9214 39.3243 53.4863 39.0363C54.0623 38.7372 54.522 38.2886 54.8654 37.6905C55.2088 37.0923 55.3805 36.3557 55.3805 35.4806C55.3805 34.6166 55.2088 33.8855 54.8654 33.2874C54.522 32.6892 54.0679 32.2462 53.503 31.9582C52.938 31.6591 52.3288 31.5095 51.6753 31.5095C51.0217 31.5095 50.4125 31.6591 49.8476 31.9582C49.2937 32.2462 48.8451 32.6892 48.5017 33.2874C48.1583 33.8855 47.9867 34.6166 47.9867 35.4806C47.9867 36.3557 48.1528 37.0923 48.4851 37.6905C48.8285 38.2886 49.2771 38.7372 49.831 39.0363C50.3959 39.3243 51.0051 39.4683 51.6587 39.4683ZM59.9752 32.8388C60.1967 32.1742 60.5899 31.6702 61.1549 31.3268C61.7198 30.9723 62.4398 30.7951 63.3149 30.7951V31.576H63.0656C62.1795 31.576 61.4429 31.8308 60.8558 32.3403C60.2687 32.8388 59.9752 33.6585 59.9752 34.7994V40H59.2275V30.9778H59.9752V32.8388ZM68.8745 40.1329C67.8665 40.1329 67.0413 39.9114 66.3988 39.4683C65.7675 39.0252 65.413 38.3938 65.3355 37.5742H66.0998C66.1551 38.1612 66.421 38.6265 66.8973 38.9698C67.3847 39.3132 68.0438 39.4849 68.8745 39.4849C69.5613 39.4849 70.1041 39.3132 70.5028 38.9698C70.9127 38.6154 71.1176 38.1834 71.1176 37.6738C71.1176 37.3194 71.0068 37.0314 70.7853 36.8098C70.5748 36.5772 70.309 36.4 69.9878 36.2782C69.6665 36.1563 69.229 36.0234 68.6751 35.8794C68.0105 35.7022 67.4733 35.5305 67.0635 35.3643C66.6536 35.1871 66.3047 34.9268 66.0167 34.5834C65.7287 34.24 65.5847 33.7803 65.5847 33.2043C65.5847 32.7834 65.7121 32.3957 65.9668 32.0412C66.2216 31.6757 66.5761 31.3877 67.0302 31.1772C67.4844 30.9668 67.9995 30.8615 68.5755 30.8615C69.517 30.8615 70.2758 31.0997 70.8518 31.576C71.4388 32.0412 71.7545 32.6892 71.7988 33.52H71.0511C71.0179 32.9218 70.7853 32.4345 70.3533 32.0578C69.9213 31.6812 69.3231 31.4929 68.5588 31.4929C67.9164 31.4929 67.3847 31.6591 66.9638 31.9914C66.5428 32.3237 66.3324 32.728 66.3324 33.2043C66.3324 33.6252 66.4487 33.9686 66.6813 34.2345C66.925 34.4892 67.2185 34.6886 67.5619 34.8326C67.9164 34.9655 68.3816 35.1095 68.9576 35.2646C69.589 35.4308 70.093 35.5969 70.4696 35.7631C70.8573 35.9182 71.1841 36.1508 71.4499 36.4609C71.7158 36.76 71.8487 37.1643 71.8487 37.6738C71.8487 38.1391 71.7213 38.56 71.4665 38.9366C71.2118 39.3132 70.8573 39.6068 70.4031 39.8172C69.949 40.0277 69.4395 40.1329 68.8745 40.1329Z" fill="#FAFAFA"/>
<path d="M0.900739 4.62154H7.49151V6.81846H3.31735V10.8828H6.63471V13.0797H3.31735V17.8031H7.49151V20H0.900739V4.62154ZM14.2632 20.2197C13.0915 20.2197 12.2054 19.8902 11.6049 19.2311C11.0044 18.5574 10.7042 17.598 10.7042 16.3531V15.4743H12.989V16.5289C12.989 17.5248 13.4064 18.0228 14.2412 18.0228C14.6513 18.0228 14.9589 17.9056 15.1639 17.6713C15.3836 17.4223 15.4935 17.0268 15.4935 16.4849C15.4935 15.8405 15.347 15.2766 15.0541 14.7933C14.7612 14.2953 14.2192 13.7022 13.4284 13.0138C12.4324 12.135 11.7367 11.3441 11.3413 10.6411C10.9458 9.92344 10.7481 9.11791 10.7481 8.22449C10.7481 7.00886 11.0557 6.07151 11.6708 5.41243C12.286 4.73871 13.1794 4.40184 14.3511 4.40184C15.5081 4.40184 16.3796 4.73871 16.9654 5.41243C17.5659 6.07151 17.8661 7.02351 17.8661 8.26843V8.90554H15.5813V8.11464C15.5813 7.58738 15.4788 7.20658 15.2738 6.97224C15.0687 6.72326 14.7685 6.59877 14.373 6.59877C13.5675 6.59877 13.1647 7.08941 13.1647 8.07071C13.1647 8.62726 13.3112 9.1472 13.6041 9.63052C13.9117 10.1138 14.4609 10.6997 15.2518 11.3881C16.2624 12.2668 16.9581 13.065 17.3389 13.7827C17.7197 14.5004 17.9101 15.3425 17.9101 16.3092C17.9101 17.5687 17.5952 18.5354 16.9654 19.2091C16.3503 19.8828 15.4495 20.2197 14.2632 20.2197ZM23.382 6.81846H20.8555V4.62154H28.325V6.81846H25.7986V20H23.382V6.81846ZM31.2066 4.62154H33.5353L34.6118 16.441H34.6558L35.7982 4.62154H38.4345L39.5769 16.441H39.6208L40.6973 4.62154H42.7844L41.2246 20H38.2148L37.1163 9.63052H37.0724L35.9739 20H32.7664L31.2066 4.62154ZM49.6968 20.2197C48.5105 20.2197 47.6024 19.8828 46.9726 19.2091C46.3428 18.5354 46.0279 17.5834 46.0279 16.3531V8.26843C46.0279 7.03815 46.3428 6.08615 46.9726 5.41243C47.6024 4.73871 48.5105 4.40184 49.6968 4.40184C50.8831 4.40184 51.7912 4.73871 52.421 5.41243C53.0508 6.08615 53.3657 7.03815 53.3657 8.26843V16.3531C53.3657 17.5834 53.0508 18.5354 52.421 19.2091C51.7912 19.8828 50.8831 20.2197 49.6968 20.2197ZM49.6968 18.0228C50.5316 18.0228 50.9491 17.5175 50.9491 16.5069V8.11464C50.9491 7.10406 50.5316 6.59877 49.6968 6.59877C48.862 6.59877 48.4446 7.10406 48.4446 8.11464V16.5069C48.4446 17.5175 48.862 18.0228 49.6968 18.0228Z" fill="#FAFAFA"/>
</svg>
