<svg width="189" height="39" viewBox="0 0 189 39" fill="none" xmlns="http://www.w3.org/2000/svg">
<path d="M94.52 24.68H86.528L84.92 29H83.744L89.936 12.536H91.136L97.304 29H96.128L94.52 24.68ZM94.184 23.768L90.536 13.952L86.864 23.768H94.184ZM100.543 22.472C100.543 21.128 100.807 19.952 101.335 18.944C101.879 17.936 102.623 17.16 103.567 16.616C104.527 16.072 105.615 15.8 106.831 15.8C108.159 15.8 109.311 16.136 110.287 16.808C111.263 17.464 111.951 18.32 112.351 19.376V11.24H113.431V29H112.351V25.544C111.967 26.616 111.295 27.496 110.335 28.184C109.375 28.856 108.207 29.192 106.831 29.192C105.615 29.192 104.527 28.92 103.567 28.376C102.623 27.816 101.879 27.032 101.335 26.024C100.807 25 100.543 23.816 100.543 22.472ZM112.351 22.472C112.351 21.336 112.111 20.336 111.631 19.472C111.167 18.592 110.527 17.92 109.711 17.456C108.895 16.976 107.983 16.736 106.975 16.736C105.919 16.736 104.991 16.968 104.191 17.432C103.391 17.88 102.767 18.536 102.319 19.4C101.871 20.264 101.647 21.288 101.647 22.472C101.647 23.656 101.871 24.68 102.319 25.544C102.767 26.408 103.391 27.072 104.191 27.536C105.007 28 105.935 28.232 106.975 28.232C107.983 28.232 108.895 28 109.711 27.536C110.543 27.056 111.191 26.384 111.655 25.52C112.119 24.64 112.351 23.624 112.351 22.472ZM122.979 27.824L127.779 15.968H128.931L123.531 29H122.403L117.003 15.968H118.179L122.979 27.824ZM133.065 13.064C132.809 13.064 132.593 12.984 132.417 12.824C132.241 12.648 132.153 12.416 132.153 12.128C132.153 11.856 132.241 11.632 132.417 11.456C132.593 11.28 132.809 11.192 133.065 11.192C133.321 11.192 133.537 11.28 133.713 11.456C133.889 11.632 133.977 11.856 133.977 12.128C133.977 12.416 133.889 12.648 133.713 12.824C133.537 12.984 133.321 13.064 133.065 13.064ZM133.593 15.968V29H132.513V15.968H133.593ZM143.096 29.192C141.64 29.192 140.448 28.872 139.52 28.232C138.608 27.592 138.096 26.68 137.984 25.496H139.088C139.168 26.344 139.552 27.016 140.24 27.512C140.944 28.008 141.896 28.256 143.096 28.256C144.088 28.256 144.872 28.008 145.448 27.512C146.04 27 146.336 26.376 146.336 25.64C146.336 25.128 146.176 24.712 145.856 24.392C145.552 24.056 145.168 23.8 144.704 23.624C144.24 23.448 143.608 23.256 142.808 23.048C141.848 22.792 141.072 22.544 140.48 22.304C139.888 22.048 139.384 21.672 138.968 21.176C138.552 20.68 138.344 20.016 138.344 19.184C138.344 18.576 138.528 18.016 138.896 17.504C139.264 16.976 139.776 16.56 140.432 16.256C141.088 15.952 141.832 15.8 142.664 15.8C144.024 15.8 145.12 16.144 145.952 16.832C146.8 17.504 147.256 18.44 147.32 19.64H146.24C146.192 18.776 145.856 18.072 145.232 17.528C144.608 16.984 143.744 16.712 142.64 16.712C141.712 16.712 140.944 16.952 140.336 17.432C139.728 17.912 139.424 18.496 139.424 19.184C139.424 19.792 139.592 20.288 139.928 20.672C140.28 21.04 140.704 21.328 141.2 21.536C141.712 21.728 142.384 21.936 143.216 22.16C144.128 22.4 144.856 22.64 145.4 22.88C145.96 23.104 146.432 23.44 146.816 23.888C147.2 24.32 147.392 24.904 147.392 25.64C147.392 26.312 147.208 26.92 146.84 27.464C146.472 28.008 145.96 28.432 145.304 28.736C144.648 29.04 143.912 29.192 143.096 29.192ZM157.618 29.192C156.402 29.192 155.306 28.92 154.33 28.376C153.354 27.832 152.586 27.056 152.026 26.048C151.482 25.024 151.21 23.832 151.21 22.472C151.21 21.128 151.49 19.952 152.05 18.944C152.61 17.92 153.378 17.144 154.354 16.616C155.346 16.072 156.45 15.8 157.666 15.8C158.882 15.8 159.978 16.072 160.954 16.616C161.93 17.144 162.69 17.912 163.234 18.92C163.794 19.928 164.074 21.112 164.074 22.472C164.074 23.832 163.794 25.024 163.234 26.048C162.674 27.056 161.898 27.832 160.906 28.376C159.93 28.92 158.834 29.192 157.618 29.192ZM157.618 28.232C158.562 28.232 159.442 28.024 160.258 27.608C161.09 27.176 161.754 26.528 162.25 25.664C162.746 24.8 162.994 23.736 162.994 22.472C162.994 21.224 162.746 20.168 162.25 19.304C161.754 18.44 161.098 17.8 160.282 17.384C159.466 16.952 158.586 16.736 157.642 16.736C156.698 16.736 155.818 16.952 155.002 17.384C154.202 17.8 153.554 18.44 153.058 19.304C152.562 20.168 152.314 21.224 152.314 22.472C152.314 23.736 152.554 24.8 153.034 25.664C153.53 26.528 154.178 27.176 154.978 27.608C155.794 28.024 156.674 28.232 157.618 28.232ZM169.631 18.656C169.951 17.696 170.519 16.968 171.335 16.472C172.151 15.96 173.191 15.704 174.455 15.704V16.832H174.095C172.815 16.832 171.751 17.2 170.903 17.936C170.055 18.656 169.631 19.84 169.631 21.488V29H168.551V15.968H169.631V18.656ZM182.485 29.192C181.029 29.192 179.837 28.872 178.909 28.232C177.997 27.592 177.485 26.68 177.373 25.496H178.477C178.557 26.344 178.941 27.016 179.629 27.512C180.333 28.008 181.285 28.256 182.485 28.256C183.477 28.256 184.261 28.008 184.837 27.512C185.429 27 185.725 26.376 185.725 25.64C185.725 25.128 185.565 24.712 185.245 24.392C184.941 24.056 184.557 23.8 184.093 23.624C183.629 23.448 182.997 23.256 182.197 23.048C181.237 22.792 180.461 22.544 179.869 22.304C179.277 22.048 178.773 21.672 178.357 21.176C177.941 20.68 177.733 20.016 177.733 19.184C177.733 18.576 177.917 18.016 178.285 17.504C178.653 16.976 179.165 16.56 179.821 16.256C180.477 15.952 181.221 15.8 182.053 15.8C183.413 15.8 184.509 16.144 185.341 16.832C186.189 17.504 186.645 18.44 186.709 19.64H185.629C185.581 18.776 185.245 18.072 184.621 17.528C183.997 16.984 183.133 16.712 182.029 16.712C181.101 16.712 180.333 16.952 179.725 17.432C179.117 17.912 178.813 18.496 178.813 19.184C178.813 19.792 178.981 20.288 179.317 20.672C179.669 21.04 180.093 21.328 180.589 21.536C181.101 21.728 181.773 21.936 182.605 22.16C183.517 22.4 184.245 22.64 184.789 22.88C185.349 23.104 185.821 23.44 186.205 23.888C186.589 24.32 186.781 24.904 186.781 25.64C186.781 26.312 186.597 26.92 186.229 27.464C185.861 28.008 185.349 28.432 184.693 28.736C184.037 29.04 183.301 29.192 182.485 29.192Z" fill="#FAFAFA"/>
<path d="M1.30107 6.78666H10.8211V9.96H4.79173V15.8307H9.58347V19.004H4.79173V25.8267H10.8211V29H1.30107V6.78666ZM20.6024 29.3173C18.9099 29.3173 17.63 28.8413 16.7626 27.8893C15.8953 26.9162 15.4616 25.5305 15.4616 23.7323V22.4629H18.7618V23.9861C18.7618 25.4247 19.3648 26.144 20.5706 26.144C21.163 26.144 21.6073 25.9748 21.9034 25.6363C22.2208 25.2766 22.3794 24.7054 22.3794 23.9227C22.3794 22.9918 22.1679 22.1773 21.7448 21.4792C21.3217 20.7599 20.5389 19.9031 19.3965 18.9088C17.9579 17.6395 16.953 16.4971 16.3818 15.4816C15.8106 14.445 15.525 13.2814 15.525 11.9909C15.525 10.235 15.9693 8.88106 16.8578 7.92906C17.7464 6.95591 19.0369 6.46933 20.7293 6.46933C22.4006 6.46933 23.6594 6.95591 24.5056 7.92906C25.373 8.88106 25.8066 10.2562 25.8066 12.0544V12.9747H22.5064V11.8323C22.5064 11.0707 22.3583 10.5206 22.0621 10.1821C21.7659 9.82249 21.3322 9.64266 20.761 9.64266C19.5975 9.64266 19.0157 10.3514 19.0157 11.7688C19.0157 12.5727 19.2273 13.3237 19.6504 14.0219C20.0946 14.72 20.888 15.5662 22.0304 16.5605C23.4901 17.8299 24.495 18.9828 25.045 20.0195C25.5951 21.0561 25.8701 22.2725 25.8701 23.6688C25.8701 25.4882 25.4153 26.8844 24.5056 27.8576C23.617 28.8308 22.316 29.3173 20.6024 29.3173ZM33.7739 9.96H30.1246V6.78666H40.9139V9.96H37.2646V29H33.7739V9.96ZM45.0762 6.78666H48.4399L49.9949 23.8592H50.0583L51.7085 6.78666H55.5165L57.1666 23.8592H57.2301L58.785 6.78666H61.7997L59.5466 29H55.1991L53.6125 14.0219H53.549L51.9623 29H47.3293L45.0762 6.78666ZM71.7843 29.3173C70.0707 29.3173 68.759 28.8308 67.8493 27.8576C66.9397 26.8844 66.4848 25.5093 66.4848 23.7323V12.0544C66.4848 10.2773 66.9397 8.90222 67.8493 7.92906C68.759 6.95591 70.0707 6.46933 71.7843 6.46933C73.4979 6.46933 74.8095 6.95591 75.7192 7.92906C76.6289 8.90222 77.0837 10.2773 77.0837 12.0544V23.7323C77.0837 25.5093 76.6289 26.8844 75.7192 27.8576C74.8095 28.8308 73.4979 29.3173 71.7843 29.3173ZM71.7843 26.144C72.9901 26.144 73.5931 25.4141 73.5931 23.9544V11.8323C73.5931 10.3725 72.9901 9.64266 71.7843 9.64266C70.5784 9.64266 69.9755 10.3725 69.9755 11.8323V23.9544C69.9755 25.4141 70.5784 26.144 71.7843 26.144Z" fill="#FAFAFA"/>
</svg>
