<svg width="49" height="17" viewBox="0 0 49 17" fill="none" xmlns="http://www.w3.org/2000/svg">
<line y1="-0.5" x2="48" y2="-0.5" transform="matrix(-1 0 0 1 48 8)" stroke="#DBB13B"/>
<g filter="url(#filter0_b_556_318)">
<path d="M39.983 12.3363L44.9581 8.95773C45.823 8.37008 46.8377 8.23733 47.4988 8.565L42.5243 11.9425L42.4927 11.9642C41.6344 12.5335 40.6369 12.6594 39.983 12.3363Z" fill="#DBB13B"/>
<path d="M36.2454 12.1503L41.2124 8.76721C42.0766 8.17868 43.0898 8.045 43.7493 8.37217L38.8143 11.7326L38.7828 11.7543L38.7509 11.7757C37.8937 12.3461 36.8974 12.4728 36.2454 12.1503Z" fill="#DBB13B"/>
<path d="M38.0404 7.74785L43.0078 4.36498C43.8718 3.77673 44.885 3.64261 45.5443 3.9697L40.6089 7.32991L40.5772 7.3519L40.5453 7.37335C39.6884 7.94347 38.6932 8.06853 38.0404 7.74785Z" fill="#DBB13B"/>
<path d="M34.3027 7.5619L39.2702 4.17904C40.1343 3.59045 41.1473 3.45667 41.8067 3.78375L36.8705 7.1453L36.839 7.16695L36.8071 7.18841C35.9509 7.7572 34.9548 7.88392 34.3027 7.5619Z" fill="#DBB13B"/>
</g>
<defs>
<filter id="filter0_b_556_318" x="19.3027" y="-11.3906" width="43.1961" height="38.9016" filterUnits="userSpaceOnUse" color-interpolation-filters="sRGB">
<feFlood flood-opacity="0" result="BackgroundImageFix"/>
<feGaussianBlur in="BackgroundImageFix" stdDeviation="7.5"/>
<feComposite in2="SourceAlpha" operator="in" result="effect1_backgroundBlur_556_318"/>
<feBlend mode="normal" in="SourceGraphic" in2="effect1_backgroundBlur_556_318" result="shape"/>
</filter>
</defs>
</svg>
